<svg width="24" height="24" viewBox="0 0 24 24" fill="none" xmlns="http://www.w3.org/2000/svg">
<path d="M10.75 3C10.5511 3 10.3603 3.07902 10.2196 3.21967C10.079 3.36032 9.99998 3.55109 9.99998 3.75C9.99998 3.94891 10.079 4.13968 10.2196 4.28033C10.3603 4.42098 10.5511 4.5 10.75 4.5H18.42L3.21998 19.7C3.149 19.771 3.09269 19.8552 3.05428 19.948C3.01587 20.0407 2.99609 20.1401 2.99609 20.2405C2.99609 20.3409 3.01587 20.4403 3.05428 20.533C3.09269 20.6258 3.149 20.71 3.21998 20.781C3.29096 20.852 3.37522 20.9083 3.46796 20.9467C3.5607 20.9851 3.6601 21.0049 3.76048 21.0049C3.86086 21.0049 3.96025 20.9851 4.05299 20.9467C4.14573 20.9083 4.23 20.852 4.30098 20.781L19.501 5.581V13.25C19.501 13.4489 19.58 13.6397 19.7206 13.7803C19.8613 13.921 20.0521 14 20.251 14C20.4499 14 20.6407 13.921 20.7813 13.7803C20.922 13.6397 21.001 13.4489 21.001 13.25V3.75C21.001 3.55109 20.922 3.36032 20.7813 3.21967C20.6407 3.07902 20.4499 3 20.251 3H10.75Z" fill="#E07A36"/>
</svg>
