<svg width="32" height="32" viewBox="0 0 32 32" fill="none" xmlns="http://www.w3.org/2000/svg">
<g clip-path="url(#clip0_445_187)">
<path d="M30.1819 16.0001C30.1819 17.706 27.7519 18.9932 27.0891 20.5941C26.451 22.1378 27.2828 24.7737 26.0282 26.0282C24.7737 27.2828 22.1378 26.451 20.5941 27.0891C19.0001 27.7519 17.7046 30.1819 16.0001 30.1819C14.2955 30.1819 13.0001 27.7519 11.406 27.0891C9.86233 26.451 7.22642 27.2828 5.97187 26.0282C4.71733 24.7737 5.54915 22.1378 4.91096 20.5941C4.24824 19.0001 1.81824 17.7046 1.81824 16.0001C1.81824 14.2955 4.24824 13.0001 4.91096 11.406C5.54915 9.86369 4.71733 7.22642 5.97187 5.97187C7.22642 4.71733 9.86369 5.54915 11.406 4.91096C13.0069 4.24824 14.2955 1.81824 16.0001 1.81824C17.7046 1.81824 19.0001 4.24824 20.5941 4.91096C22.1378 5.54915 24.7737 4.71733 26.0282 5.97187C27.2828 7.22642 26.451 9.86233 27.0891 11.406C27.7519 13.0069 30.1819 14.2955 30.1819 16.0001Z" fill="#CFEEDE"/>
<path d="M29.3446 12.5664C28.8305 12.0291 28.2987 11.4755 28.0982 10.9887C27.9128 10.5427 27.9018 9.80366 27.8909 9.08775C27.8705 7.75684 27.8487 6.24866 26.8 5.20002C25.7514 4.15139 24.2432 4.12957 22.9123 4.10911C22.1964 4.0982 21.4573 4.08729 21.0114 3.90184C20.5259 3.70139 19.9709 3.16957 19.4337 2.65548C18.4927 1.75139 17.4237 0.727295 16 0.727295C14.5764 0.727295 13.5087 1.75139 12.5664 2.65548C12.0291 3.16957 11.4755 3.70139 10.9887 3.90184C10.5455 4.08729 9.80366 4.0982 9.08775 4.10911C7.75684 4.12957 6.24866 4.15139 5.20002 5.20002C4.15139 6.24866 4.13639 7.75684 4.10911 9.08775C4.0982 9.80366 4.08729 10.5427 3.90184 10.9887C3.70139 11.4741 3.16957 12.0291 2.65548 12.5664C1.75139 13.5073 0.727295 14.5764 0.727295 16C0.727295 17.4237 1.75139 18.4914 2.65548 19.4337C3.16957 19.9709 3.70139 20.5246 3.90184 21.0114C4.08729 21.4573 4.0982 22.1964 4.10911 22.9123C4.12957 24.2432 4.15139 25.7514 5.20002 26.8C6.24866 27.8487 7.75684 27.8705 9.08775 27.8909C9.80366 27.9018 10.5427 27.9128 10.9887 28.0982C11.4741 28.2987 12.0291 28.8305 12.5664 29.3446C13.5073 30.2487 14.5764 31.2728 16 31.2728C17.4237 31.2728 18.4914 30.2487 19.4337 29.3446C19.9709 28.8305 20.5246 28.2987 21.0114 28.0982C21.4573 27.9128 22.1964 27.9018 22.9123 27.8909C24.2432 27.8705 25.7514 27.8487 26.8 26.8C27.8487 25.7514 27.8705 24.2432 27.8909 22.9123C27.9018 22.1964 27.9128 21.4573 28.0982 21.0114C28.2987 20.5259 28.8305 19.9709 29.3446 19.4337C30.2487 18.4927 31.2728 17.4237 31.2728 16C31.2728 14.5764 30.2487 13.5087 29.3446 12.5664ZM27.7696 17.9241C27.1164 18.6059 26.44 19.3109 26.0814 20.1768C25.7377 21.0087 25.7227 21.9591 25.7091 22.8796C25.6955 23.8341 25.6805 24.8337 25.2564 25.2564C24.8323 25.6791 23.8396 25.6955 22.8796 25.7091C21.9591 25.7227 21.0087 25.7377 20.1768 26.0814C19.3109 26.44 18.6059 27.1164 17.9241 27.7696C17.2423 28.4228 16.5455 29.0909 16 29.0909C15.4546 29.0909 14.7523 28.42 14.0759 27.7696C13.3996 27.1191 12.6891 26.44 11.8232 26.0814C10.9914 25.7377 10.0409 25.7227 9.12048 25.7091C8.16593 25.6955 7.16639 25.6805 6.74366 25.2564C6.32093 24.8323 6.30457 23.8396 6.29093 22.8796C6.2773 21.9591 6.2623 21.0087 5.91866 20.1768C5.56002 19.3109 4.88366 18.6059 4.23048 17.9241C3.57729 17.2423 2.90911 16.5455 2.90911 16C2.90911 15.4546 3.58002 14.7523 4.23048 14.0759C4.88093 13.3996 5.56002 12.6891 5.91866 11.8232C6.2623 10.9914 6.2773 10.0409 6.29093 9.12048C6.30457 8.16593 6.31957 7.16639 6.74366 6.74366C7.16775 6.32093 8.16048 6.30457 9.12048 6.29093C10.0409 6.2773 10.9914 6.2623 11.8232 5.91866C12.6891 5.56002 13.3941 4.88366 14.0759 4.23048C14.7577 3.57729 15.4546 2.90911 16 2.90911C16.5455 2.90911 17.2477 3.58002 17.9241 4.23048C18.6005 4.88093 19.3109 5.56002 20.1768 5.91866C21.0087 6.2623 21.9591 6.2773 22.8796 6.29093C23.8341 6.30457 24.8337 6.31957 25.2564 6.74366C25.6791 7.16775 25.6955 8.16048 25.7091 9.12048C25.7227 10.0409 25.7377 10.9914 26.0814 11.8232C26.44 12.6891 27.1164 13.3941 27.7696 14.0759C28.4228 14.7577 29.0909 15.4546 29.0909 16C29.0909 16.5455 28.42 17.2477 27.7696 17.9241ZM22.2264 11.9555C22.3278 12.0568 22.4083 12.1771 22.4632 12.3095C22.5181 12.442 22.5463 12.5839 22.5463 12.7273C22.5463 12.8707 22.5181 13.0126 22.4632 13.145C22.4083 13.2775 22.3278 13.3978 22.2264 13.4991L14.59 21.1355C14.4887 21.2369 14.3684 21.3174 14.236 21.3723C14.1035 21.4272 13.9616 21.4554 13.8182 21.4554C13.6748 21.4554 13.5329 21.4272 13.4005 21.3723C13.268 21.3174 13.1477 21.2369 13.0464 21.1355L9.77366 17.8628C9.56896 17.6581 9.45396 17.3804 9.45396 17.0909C9.45396 16.8014 9.56896 16.5238 9.77366 16.3191C9.97836 16.1144 10.256 15.9994 10.5455 15.9994C10.835 15.9994 11.1126 16.1144 11.3173 16.3191L13.8182 18.8214L20.6827 11.9555C20.7841 11.854 20.9044 11.7736 21.0368 11.7187C21.1692 11.6638 21.3112 11.6355 21.4546 11.6355C21.5979 11.6355 21.7399 11.6638 21.8723 11.7187C22.0048 11.7736 22.1251 11.854 22.2264 11.9555Z" fill="#0FA958"/>
</g>
<defs>
<clipPath id="clip0_445_187">
<rect width="32" height="32" fill="white"/>
</clipPath>
</defs>
</svg>
