<svg width="42" height="42" viewBox="0 0 42 42" fill="none" xmlns="http://www.w3.org/2000/svg">
<rect x="1" y="1" width="40" height="40" fill="url(#paint0_linear_50_6723)" fill-opacity="0.25"/>
<rect x="1" y="1" width="40" height="40" stroke="url(#paint1_linear_50_6723)" stroke-opacity="0.5" stroke-width="0.5"/>
<path d="M26.7145 25.9998V23.8569H17.4287C16.2453 23.8569 15.2859 24.8163 15.2859 25.9998M18.7145 28.1426H24.4287C25.2288 28.1426 25.6289 28.1426 25.9344 27.9869C26.2032 27.85 26.4218 27.6314 26.5588 27.3626C26.7145 27.057 26.7145 26.657 26.7145 25.8569V16.1426C26.7145 15.3426 26.7145 14.9425 26.5588 14.6369C26.4218 14.3681 26.2032 14.1496 25.9344 14.0126C25.6289 13.8569 25.2288 13.8569 24.4287 13.8569H18.7145C17.5143 13.8569 16.9143 13.8569 16.4559 14.0905C16.0527 14.2959 15.7249 14.6237 15.5194 15.027C15.2859 15.4853 15.2859 16.0854 15.2859 17.2855V24.7141C15.2859 25.9142 15.2859 26.5142 15.5194 26.9726C15.7249 27.3758 16.0527 27.7036 16.4559 27.9091C16.9143 28.1426 17.5143 28.1426 18.7145 28.1426Z" stroke="#DDE0EB" stroke-width="1.42857" stroke-linecap="round" stroke-linejoin="round"/>
<defs>
<linearGradient id="paint0_linear_50_6723" x1="41" y1="21" x2="1" y2="21" gradientUnits="userSpaceOnUse">
<stop stop-color="#D9D9D9"/>
<stop offset="1" stop-color="#D9D9D9" stop-opacity="0"/>
</linearGradient>
<linearGradient id="paint1_linear_50_6723" x1="1" y1="21" x2="41" y2="21" gradientUnits="userSpaceOnUse">
<stop stop-color="white"/>
<stop offset="1" stop-color="white" stop-opacity="0"/>
</linearGradient>
</defs>
</svg>
