<svg width="42" height="42" viewBox="0 0 42 42" fill="none" xmlns="http://www.w3.org/2000/svg">
<rect x="1" y="1" width="40" height="40" fill="url(#paint0_linear_50_6713)" fill-opacity="0.25"/>
<rect x="1" y="1" width="40" height="40" stroke="url(#paint1_linear_50_6713)" stroke-opacity="0.5" stroke-width="0.5"/>
<path d="M19.5716 23.1426L17.375 25.3667C17.0686 25.6769 16.9154 25.8321 16.7837 25.843C16.6695 25.8525 16.5576 25.8066 16.483 25.7195C16.397 25.6192 16.397 25.4012 16.397 24.9652V23.8509C16.397 23.4598 16.0766 23.1767 15.6896 23.12V23.12C14.7528 22.9828 14.0171 22.2471 13.8799 21.3104C13.8573 21.1559 13.8573 20.9716 13.8573 20.603V17.2855C13.8573 16.0854 13.8573 15.4853 14.0909 15.027C14.2963 14.6237 14.6241 14.2959 15.0273 14.0905C15.4857 13.8569 16.0858 13.8569 17.2859 13.8569H22.5716C23.7717 13.8569 24.3718 13.8569 24.8301 14.0905C25.2333 14.2959 25.5612 14.6237 25.7666 15.027C26.0002 15.4853 26.0002 16.0854 26.0002 17.2855V20.2855M26.0002 28.1426L24.4456 27.0618C24.2271 26.9099 24.1178 26.834 23.9989 26.7801C23.8933 26.7323 23.7824 26.6975 23.6684 26.6765C23.54 26.6529 23.407 26.6529 23.1408 26.6529H21.8573C21.0572 26.6529 20.6572 26.6529 20.3516 26.4971C20.0828 26.3602 19.8643 26.1416 19.7273 25.8728C19.5716 25.5673 19.5716 25.1672 19.5716 24.3671V22.5712C19.5716 21.7711 19.5716 21.3711 19.7273 21.0655C19.8643 20.7967 20.0828 20.5782 20.3516 20.4412C20.6572 20.2855 21.0572 20.2855 21.8573 20.2855H25.8573C26.6574 20.2855 27.0574 20.2855 27.363 20.4412C27.6318 20.5782 27.8503 20.7967 27.9873 21.0655C28.143 21.3711 28.143 21.7711 28.143 22.5712V24.51C28.143 25.1756 28.143 25.5084 28.0343 25.771C27.8893 26.121 27.6112 26.3991 27.2611 26.5441C26.9986 26.6529 26.6658 26.6529 26.0002 26.6529V28.1426Z" stroke="#DDE0EB" stroke-width="1.42857" stroke-linecap="round" stroke-linejoin="round"/>
<defs>
<linearGradient id="paint0_linear_50_6713" x1="41" y1="21" x2="1" y2="21" gradientUnits="userSpaceOnUse">
<stop stop-color="#D9D9D9"/>
<stop offset="1" stop-color="#D9D9D9" stop-opacity="0"/>
</linearGradient>
<linearGradient id="paint1_linear_50_6713" x1="1" y1="21" x2="41" y2="21" gradientUnits="userSpaceOnUse">
<stop stop-color="white"/>
<stop offset="1" stop-color="white" stop-opacity="0"/>
</linearGradient>
</defs>
</svg>
