<svg width="360" height="25" viewBox="0 0 360 25" fill="none" xmlns="http://www.w3.org/2000/svg">
<g clip-path="url(#clip0_48_4618)">
<path d="M17.8569 19.6668L20.3069 5.28596H24.2268L21.7749 19.6668H17.8569ZM35.9358 5.59699C34.8095 5.19071 33.6201 4.98746 32.4229 4.9969C28.5499 4.9969 25.8229 6.94677 25.7979 9.74177C25.7759 11.8088 27.7459 12.961 29.2329 13.649C30.7589 14.355 31.2709 14.8029 31.2639 15.4329C31.2539 16.3969 30.0449 16.8328 28.9189 16.8328C27.6474 16.87 26.3847 16.6117 25.23 16.078L24.7249 15.8489L24.1738 19.0679C25.5713 19.5838 27.0502 19.8434 28.5398 19.8348C32.6608 19.8348 35.34 17.9069 35.366 14.9219C35.381 13.2859 34.337 12.041 32.075 11.015C30.705 10.35 29.866 9.90598 29.875 9.23298C29.875 8.63298 30.5849 7.99592 32.1199 7.99592C33.1256 7.97324 34.125 8.16094 35.054 8.54694L35.405 8.71296L35.9358 5.59699ZM46.0229 5.28693H42.9939C42.5682 5.23211 42.1364 5.31927 41.7654 5.53498C41.3943 5.75069 41.1049 6.08277 40.9419 6.47981L35.1208 19.6588H39.2368C39.2368 19.6588 39.91 17.8869 40.062 17.4979L45.082 17.504C45.199 18.004 45.5579 19.66 45.5579 19.66H49.1958L46.0229 5.28693ZM41.218 14.5718C41.542 13.7438 42.7788 10.5518 42.7788 10.5518C42.7558 10.5908 43.1008 9.71976 43.2988 9.17976L43.564 10.42C43.564 10.42 44.3139 13.8528 44.4709 14.5718H41.218ZM14.53 5.28693L10.6919 15.0938L10.2849 13.1038C9.29116 10.4866 7.35522 8.33521 4.85693 7.07185L8.36694 19.6478H12.5139L18.6848 5.29499H14.533" fill="#BACAD6"/>
<path d="M7.11108 4.32386H0.790039L0.73999 4.62391C5.65799 5.81391 8.91196 8.69086 10.262 12.1469L8.88696 5.53895C8.78674 5.15638 8.5518 4.82271 8.22534 4.5995C7.89888 4.37628 7.50394 4.27844 7.11108 4.32386Z" fill="#BACAD6"/>
<path d="M78.25 14.6851C78.2861 14.2192 78.3488 13.7558 78.438 13.2971C78.517 12.8111 79.032 9.74414 79.032 9.74414H79.906C80.445 7.14922 81.7515 4.77618 83.656 2.93311C81.4215 1.03761 78.5862 -0.00233297 75.656 -0.000975235C72.3645 0.00273025 69.2088 1.31194 66.8813 3.63941C64.5539 5.96687 63.2447 9.12254 63.241 12.4141C63.2447 15.7056 64.5539 18.8613 66.8813 21.1887C69.2088 23.5162 72.3645 24.8254 75.656 24.8291C78.5863 24.831 81.4218 23.7912 83.656 21.8953C81.9139 20.2097 80.6684 18.0776 80.0559 15.7322C79.8195 15.7964 79.5758 15.8299 79.3308 15.832C79.1795 15.8461 79.0271 15.8257 78.885 15.772C78.7429 15.7183 78.6149 15.6328 78.5107 15.5222C78.4065 15.4117 78.3289 15.2788 78.2837 15.1338C78.2385 14.9887 78.227 14.8352 78.25 14.6851ZM68.4849 15.7393L69.27 10.8171L67.5168 15.7393H66.583L66.468 10.8452L65.6428 15.7393H64.3599L65.4319 9.33911H67.4028L67.458 13.3032L68.7878 9.33911H70.916L69.856 15.7393H68.4849ZM73.0908 15.7393L73.116 15.1992C72.9437 15.4105 72.7236 15.5777 72.4739 15.6873C72.2242 15.7968 71.9521 15.8454 71.6799 15.8291C71.5016 15.8262 71.3259 15.786 71.1641 15.7112C71.0022 15.6364 70.8578 15.5287 70.74 15.3948C70.6222 15.2609 70.5338 15.1039 70.4802 14.9338C70.4267 14.7638 70.4091 14.5844 70.429 14.4072C70.429 13.1392 71.314 12.4001 72.834 12.4001C73.0213 12.402 73.2081 12.4154 73.3938 12.4402C73.4263 12.3304 73.4444 12.2166 73.447 12.1021C73.447 11.7571 73.2088 11.6292 72.5688 11.6292C72.0755 11.6282 71.5853 11.7068 71.1169 11.8621C71.1319 11.7761 71.3069 10.6921 71.3069 10.6921C71.8366 10.5169 72.3901 10.424 72.948 10.4163C74.125 10.4163 74.7478 10.9452 74.7478 11.9412C74.7376 12.2879 74.7003 12.6333 74.636 12.9741C74.518 13.7281 74.263 15.3453 74.228 15.7393H73.0908ZM77.104 12.6392C77.4029 12.74 77.6599 12.9371 77.8347 13.1997C78.0095 13.4623 78.0921 13.7754 78.0698 14.0901C78.0698 15.2801 77.4018 15.8311 75.9558 15.8311C75.4762 15.8336 74.998 15.7822 74.53 15.6772C74.538 15.6222 74.718 14.4771 74.718 14.4771C75.1139 14.6115 75.529 14.6808 75.947 14.6821C76.489 14.6821 76.7349 14.5352 76.7349 14.2112C76.7349 13.9752 76.649 13.8972 76.094 13.6362C75.7886 13.5354 75.523 13.3401 75.3354 13.0789C75.1479 12.8176 75.0477 12.5037 75.0498 12.1821C75.0498 11.2191 75.5759 10.4192 77.1089 10.4192C77.5126 10.4264 77.9155 10.4596 78.3149 10.519L78.1208 11.7271C77.7945 11.6797 77.4657 11.6534 77.136 11.6482C76.693 11.6482 76.4648 11.7932 76.4648 12.0742C76.4638 12.3162 76.531 12.3742 77.105 12.6382L77.104 12.6392Z" fill="#BACAD6"/>
<path d="M71.7548 14.1924C71.7473 14.2605 71.7546 14.3295 71.7761 14.3945C71.7975 14.4596 71.8328 14.5191 71.8793 14.5693C71.9259 14.6196 71.9826 14.6594 72.0458 14.6858C72.1091 14.7122 72.1773 14.7247 72.2458 14.7224C72.8048 14.7224 73.2057 14.1914 73.2297 13.4224C73.1286 13.4086 73.0268 13.4015 72.9247 13.4014C72.1467 13.4024 71.7548 13.6654 71.7548 14.1924Z" fill="#BACAD6"/>
<path d="M94.516 13.4023C93.74 13.4023 93.3459 13.6683 93.3459 14.1943C93.3384 14.2624 93.3456 14.3314 93.3671 14.3965C93.3886 14.4615 93.4238 14.5213 93.4704 14.5715C93.517 14.6218 93.5739 14.6614 93.6371 14.6877C93.7004 14.7141 93.7684 14.7266 93.8368 14.7244C94.3958 14.7244 94.798 14.1933 94.821 13.4243C94.7199 13.4102 94.6181 13.4028 94.516 13.4023Z" fill="#BACAD6"/>
<path d="M92.853 1.50384e-06C89.9228 -0.00144333 87.0875 1.03826 84.853 2.93384C86.9391 4.95154 88.302 7.60061 88.731 10.4709C88.9853 10.0722 89.3364 9.74434 89.7517 9.51807C90.167 9.29179 90.633 9.17456 91.106 9.177C91.6231 9.20498 92.132 9.31748 92.6128 9.51001L92.3889 10.8999C92.0156 10.6856 91.5951 10.5668 91.1648 10.554C90.1418 10.554 89.4238 11.5419 89.4238 12.9539C89.4238 13.9259 89.9059 14.5139 90.7029 14.5139C91.1109 14.4954 91.5093 14.383 91.8669 14.1858L91.626 15.645C91.2338 15.7655 90.8263 15.8288 90.416 15.833C90.0742 15.8464 89.7336 15.7807 89.4214 15.6409C89.1091 15.5011 88.8336 15.2908 88.616 15.0269C88.0864 17.6458 86.775 20.0427 84.855 21.9009C87.0893 23.7968 89.9247 24.8368 92.855 24.835C96.1466 24.8313 99.3023 23.522 101.63 21.1946C103.958 18.8671 105.267 15.7115 105.271 12.4199C105.268 9.12709 103.959 5.96993 101.631 3.64136C99.3027 1.31279 96.1459 0.00317936 92.853 1.50384e-06ZM95.8179 15.739H94.6829L94.708 15.199C94.5357 15.4103 94.3156 15.5775 94.0659 15.687C93.8162 15.7966 93.5441 15.8452 93.272 15.8289C93.0936 15.8259 92.9178 15.7857 92.7559 15.7109C92.5939 15.6362 92.4494 15.5284 92.3315 15.3945C92.2137 15.2607 92.1252 15.1037 92.0715 14.9336C92.0179 14.7635 92.0004 14.5842 92.02 14.407C92.02 13.139 92.906 12.3999 94.426 12.3999C94.613 12.4018 94.7995 12.4152 94.9849 12.4399C95.0171 12.33 95.0348 12.2163 95.0378 12.1018C95.0378 11.7568 94.7999 11.6289 94.1599 11.6289C93.6669 11.628 93.177 11.7066 92.709 11.8618C92.723 11.7758 92.8989 10.6919 92.8989 10.6919C93.4283 10.5167 93.9813 10.4237 94.5388 10.416C95.7158 10.416 96.3389 10.9449 96.3389 11.9409C96.3293 12.2877 96.2923 12.633 96.228 12.9739C96.108 13.7289 95.8519 15.346 95.8179 15.739ZM97.646 15.739H96.2759L96.3379 15.3889C96.5769 13.7759 96.881 12.144 97.053 10.533H98.312C98.3072 10.7978 98.2797 11.0616 98.23 11.3218C98.65 10.7058 98.9709 10.382 99.5439 10.501C99.2928 10.9744 99.1173 11.4842 99.0239 12.012C98.2549 11.933 98.137 12.556 97.646 15.739ZM101.776 15.739L101.84 15.2539C101.685 15.4378 101.492 15.5849 101.273 15.6843C101.054 15.7838 100.816 15.8331 100.576 15.8289C99.5759 15.8289 98.9209 14.971 98.9209 13.668C98.9209 11.937 99.9419 10.4758 101.151 10.4758C101.411 10.4744 101.668 10.5387 101.896 10.6628C102.125 10.787 102.319 10.9668 102.46 11.1858L102.76 9.33594H104.111L103.068 15.7358L101.776 15.739Z" fill="#BACAD6"/>
<path d="M101.411 11.7612C100.789 11.7612 100.348 12.4872 100.348 13.5112C100.348 14.1922 100.585 14.5374 101.048 14.5374C101.687 14.5374 102.135 13.8142 102.135 12.7822C102.137 12.1212 101.883 11.7612 101.411 11.7612Z" fill="#BACAD6"/>
<path d="M83.095 11.6011C82.662 11.6011 82.3509 11.932 82.2249 12.53H83.7249C83.7369 12.422 83.874 11.6011 83.095 11.6011Z" fill="#BACAD6"/>
<path d="M88.0679 12.2961C88.0679 11.8861 88.042 11.4811 87.999 11.0801C87.8875 11.3828 87.8011 11.6943 87.741 12.0112C86.972 11.9332 86.854 12.5562 86.365 15.7402H84.9939L85.0569 15.3901C85.2949 13.7771 85.6 12.1452 85.772 10.5332H87.03C87.0249 10.7984 86.9974 11.0627 86.948 11.3232C87.277 10.8402 87.5479 10.5381 87.9219 10.4861C87.4983 7.81064 86.2104 5.34754 84.2549 3.47314C82.2881 5.359 80.9974 7.84023 80.582 10.5332H80.936L80.75 11.7842H80.45C80.44 11.9932 80.4338 12.2043 80.4338 12.4163C80.4333 14.0874 80.7712 15.7413 81.4272 17.2783C82.0833 18.8153 83.0439 20.2034 84.251 21.3591C86.4444 19.2567 87.7879 16.421 88.0259 13.3921C88.0189 13.2861 88.0139 13.1782 88.0139 13.0662C88.0147 12.8086 88.0327 12.5513 88.0679 12.2961ZM83.3049 14.6531C83.7962 14.6527 84.2808 14.5403 84.7219 14.3242L84.4949 15.624C84.0417 15.7654 83.5697 15.8367 83.095 15.8352C82.7804 15.8759 82.4608 15.8436 82.1606 15.7412C81.8605 15.6388 81.5878 15.4688 81.3638 15.2444C81.1397 15.0199 80.9701 14.7471 80.8682 14.4468C80.7663 14.1464 80.7347 13.8267 80.7759 13.5122C80.7759 11.7312 81.7869 10.4211 83.1599 10.4211C83.4095 10.4057 83.6595 10.4443 83.8928 10.5342C84.1262 10.6241 84.3373 10.7632 84.512 10.9421C84.6867 11.121 84.8209 11.3354 84.9053 11.5708C84.9896 11.8062 85.0223 12.057 85.001 12.3062C84.9946 12.7382 84.9383 13.1681 84.833 13.5872H82.1199C82.0299 14.3372 82.5129 14.6521 83.3059 14.6521L83.3049 14.6531Z" fill="#BACAD6"/>
<path d="M279.731 7.96704H279.921L280.073 7.91602L280.225 7.86499L280.359 7.729L280.493 7.59204L280.563 7.41113L280.635 7.229V6.96191V6.69507L280.572 6.59497L280.51 6.49512L280.4 6.42798L280.291 6.36011H279.817L279.656 6.43311L279.496 6.50391L279.402 6.604L279.309 6.7041L279.236 6.87695L279.162 7.04907L279.147 7.31812L279.134 7.58813L279.202 7.72192L279.269 7.85596L279.402 7.91602L279.533 7.97607L279.731 7.96704ZM310.142 15.637H310.829V15.217L310.908 14.696C310.952 14.41 311.024 13.956 311.068 13.688C311.112 13.42 311.168 13.0811 311.191 12.9341C311.214 12.7871 311.274 12.4691 311.327 12.2271C311.38 11.9851 311.444 11.727 311.471 11.646C311.494 11.5875 311.511 11.527 311.521 11.4651C311.557 11.3572 311.601 11.2523 311.652 11.1511L311.781 10.877L311.951 10.6499L312.122 10.4231L312.31 10.282C312.426 10.1959 312.55 10.1193 312.678 10.053L312.857 9.96606H313.25H313.644L313.798 10.0151L313.953 10.064L313.979 10.0481L314.005 10.032V9.93213C314.022 9.77848 314.046 9.62585 314.08 9.4751L314.154 9.12012L314.071 9.08691C313.992 9.05791 313.911 9.03013 313.832 9.00513L313.674 8.95605H313.109L312.879 9.03711L312.648 9.11792L312.475 9.21802L312.302 9.31812L312.077 9.55396L311.852 9.78906L311.73 9.97192C311.695 10.0354 311.651 10.0937 311.6 10.145C311.6 10.139 311.632 9.92996 311.681 9.67896C311.73 9.42796 311.771 9.19108 311.771 9.15308V9.08203H310.609V9.10205C310.609 9.11305 310.579 9.31405 310.544 9.55005C310.509 9.78605 310.438 10.2391 310.386 10.5591C310.324 10.9417 310.262 11.3241 310.199 11.7061C310.145 12.0361 310.086 12.367 310.025 12.696C309.981 12.929 309.904 13.3399 309.853 13.6079C309.802 13.8759 309.718 14.3079 309.666 14.5659L309.515 15.3281L309.457 15.6189L310.142 15.637ZM294.212 15.637H294.883L294.904 15.353C294.914 15.197 294.953 14.8821 294.987 14.6531C295.021 14.4241 295.095 13.9681 295.149 13.6401C295.216 13.2341 295.289 12.829 295.368 12.425C295.436 12.086 295.511 11.748 295.538 11.675C295.559 11.6181 295.575 11.5591 295.584 11.499C295.613 11.4001 295.651 11.304 295.697 11.2119C295.771 11.0543 295.856 10.9021 295.951 10.7561L296.096 10.5439L296.286 10.366L296.478 10.188L296.715 10.0759L296.951 9.96191H297.314H297.674L297.852 10.0161C297.952 10.0451 298.038 10.0691 298.052 10.0691C298.066 10.0691 298.07 10.0361 298.07 9.99512C298.07 9.95412 298.106 9.74691 298.149 9.53491C298.192 9.32291 298.227 9.14001 298.227 9.13501C298.156 9.09392 298.079 9.0638 297.999 9.0459C297.873 9.00758 297.744 8.97798 297.614 8.95703L297.456 8.93701L297.256 8.97412C297.13 8.99835 297.006 9.03162 296.885 9.07397C296.768 9.12032 296.655 9.17714 296.548 9.2439C296.433 9.32071 296.325 9.4074 296.225 9.50293C296.112 9.61941 296.007 9.74345 295.91 9.87402C295.841 9.96802 295.772 10.062 295.703 10.157L295.657 10.22L295.686 10.094C295.7 10.024 295.743 9.79399 295.778 9.59399C295.813 9.39399 295.852 9.19411 295.861 9.16211L295.878 9.10693H294.678V9.18311C294.678 9.22411 294.642 9.47497 294.6 9.74097C294.558 10.007 294.484 10.4491 294.44 10.7251C294.396 11.0011 294.318 11.4829 294.267 11.7939C294.212 12.1273 294.155 12.4573 294.094 12.7839C293.976 13.4126 293.855 14.0409 293.732 14.6689C293.678 14.9369 293.615 15.2529 293.591 15.3689C293.567 15.4849 293.547 15.5981 293.547 15.6121V15.6401L294.212 15.637ZM278.4 15.637H279.077L279.096 15.5869C279.11 15.5347 279.116 15.481 279.115 15.427C279.115 15.367 279.157 15.0531 279.209 14.7271C279.327 13.9937 279.449 13.2583 279.574 12.521C279.627 12.211 279.683 11.903 279.742 11.594C279.792 11.335 279.869 10.9311 279.912 10.6941C279.955 10.4571 280.043 10.017 280.105 9.70801C280.167 9.39901 280.225 9.13292 280.234 9.11792L280.251 9.09009L279.567 9.0979L278.883 9.10693L278.826 9.51611C278.795 9.74111 278.726 10.1861 278.674 10.5061C278.622 10.8261 278.542 11.3141 278.498 11.5901C278.444 11.9211 278.386 12.2501 278.326 12.5801C278.276 12.8481 278.198 13.2579 278.154 13.4919C278.11 13.7259 278.032 14.1361 277.98 14.4031C277.928 14.6701 277.857 15.025 277.823 15.189C277.789 15.353 277.753 15.5191 277.742 15.5581L277.723 15.6289L278.4 15.637ZM269.946 15.637H270.71L270.764 15.2991C270.795 15.1131 270.854 14.7561 270.894 14.5061L271.067 13.469C271.12 13.149 271.201 12.676 271.246 12.416C271.291 12.156 271.36 11.754 271.401 11.522C271.424 11.3735 271.455 11.2267 271.495 11.082L271.513 11.064H275.619L275.642 11.0859L275.664 11.1079L275.63 11.29C275.61 11.39 275.552 11.6981 275.501 11.9751C275.45 12.2521 275.363 12.7189 275.31 13.0129C275.253 13.3223 275.196 13.6313 275.137 13.9399C275.095 14.1559 275.011 14.609 274.95 14.946C274.889 15.283 274.84 15.5771 274.84 15.5991V15.6379H276.374L276.407 15.438C276.425 15.331 276.456 15.1381 276.473 15.0061C276.49 14.8741 276.535 14.6001 276.573 14.3931C276.611 14.1861 276.678 13.7759 276.728 13.4819C276.778 13.1879 276.865 12.682 276.917 12.366C276.969 12.05 277.048 11.5791 277.091 11.3291C277.145 11.0144 277.202 10.7 277.261 10.386C277.312 10.117 277.398 9.66513 277.449 9.38013C277.5 9.09513 277.58 8.66312 277.624 8.42212C277.668 8.18112 277.747 7.74102 277.8 7.44702C277.853 7.15302 277.923 6.81006 277.951 6.68506L278.004 6.45703H276.451L276.43 6.60596C276.418 6.68796 276.381 6.91794 276.347 7.11694C276.313 7.31594 276.247 7.66908 276.209 7.90308C276.171 8.13708 276.091 8.58107 276.039 8.89307C275.987 9.20507 275.939 9.50308 275.893 9.80908L275.841 10.1589L274.701 10.1821L273.561 10.2041L272.606 10.1821C272.081 10.1691 271.648 10.1571 271.645 10.1541C271.653 10.0627 271.666 9.97185 271.685 9.88208C271.718 9.69408 271.754 9.50614 271.792 9.31714C271.841 9.07714 271.888 8.83599 271.933 8.59399C271.975 8.36099 272.026 8.07095 272.043 7.94995C272.06 7.82895 272.095 7.62795 272.122 7.50195C272.149 7.37595 272.198 7.11204 272.233 6.91504C272.268 6.71804 272.304 6.53508 272.316 6.50708L272.335 6.45703H270.794L270.744 6.73193C270.718 6.88293 270.682 7.09894 270.665 7.21094C270.648 7.32294 270.59 7.68399 270.538 8.01099C270.486 8.33799 270.407 8.82697 270.363 9.09497L270.191 10.179C270.13 10.5563 270.067 10.9334 270 11.3101C269.943 11.6194 269.886 11.9284 269.829 12.2371C269.788 12.4541 269.71 12.8639 269.656 13.1499C269.602 13.4359 269.539 13.75 269.48 14.05C269.437 14.258 269.39 14.497 269.38 14.584C269.37 14.671 269.317 14.9199 269.272 15.1379C269.227 15.3559 269.191 15.5579 269.191 15.5859V15.636H269.955L269.946 15.637ZM315.667 15.79H315.967L316.25 15.7439C316.406 15.7189 316.604 15.6791 316.69 15.6541C316.809 15.6166 316.925 15.5694 317.036 15.5129L317.224 15.4131L317.387 15.27L317.55 15.127L317.721 14.8989C317.789 14.8108 317.852 14.7191 317.91 14.624L317.927 14.5769L317.911 14.7341C317.9 14.8388 317.886 14.9434 317.868 15.0481C317.853 15.1341 317.831 15.3 317.82 15.417L317.799 15.6289H319.033V15.2041L319.127 14.4041C319.178 13.9641 319.254 13.377 319.296 13.104C319.338 12.831 319.401 12.4311 319.439 12.2241C319.477 12.0171 319.539 11.6421 319.585 11.3911C319.631 11.1401 319.706 10.702 319.757 10.417C319.808 10.132 319.894 9.68013 319.943 9.41113C319.992 9.14213 320.069 8.72613 320.115 8.48413C320.161 8.24213 320.24 7.81802 320.293 7.54102C320.346 7.26402 320.406 6.964 320.466 6.677C320.508 6.477 320.542 6.30499 320.542 6.29199V6.26904H319.196L319.176 6.46899C319.165 6.57599 319.113 6.93396 319.062 7.26196C319 7.64996 318.937 8.03803 318.874 8.42603C318.835 8.64903 318.799 8.87295 318.763 9.09595L318.745 9.20093L318.693 9.17798C318.663 9.16598 318.505 9.12112 318.341 9.07812L318.041 9.00391L317.632 8.97192L317.224 8.93994L316.879 8.97192L316.533 9.00391L316.22 9.08398L315.905 9.16406L315.605 9.31006L315.305 9.45605L315.085 9.61792L314.866 9.78101L314.676 9.98096C314.557 10.1117 314.445 10.2494 314.341 10.3931L314.195 10.6011L314.024 10.9561C313.932 11.1561 313.817 11.411 313.77 11.532C313.723 11.653 313.645 11.9211 313.591 12.1321L313.491 12.5081L313.444 12.9961L313.397 13.4841L313.431 13.877L313.468 14.271L313.51 14.4121C313.532 14.4901 313.582 14.628 313.618 14.72L313.684 14.887L313.805 15.051L313.928 15.2161L314.066 15.3291L314.204 15.4421L314.392 15.5349C314.517 15.5943 314.647 15.644 314.779 15.6831C314.909 15.7174 315.04 15.7439 315.172 15.7629C315.28 15.7769 315.501 15.79 315.666 15.792L315.667 15.79ZM316.203 14.8979L315.966 14.9099L315.806 14.8811C315.699 14.8596 315.594 14.8278 315.493 14.7861L315.34 14.7209L315.212 14.615L315.082 14.51L314.891 14.1431L314.848 13.9431L314.804 13.7429V13.334V12.926L314.854 12.564L314.905 12.2031L314.984 11.9519C315.017 11.857 315.043 11.7603 315.063 11.6621C315.089 11.5756 315.122 11.4916 315.163 11.4111C315.224 11.2761 315.288 11.141 315.357 11.011C315.424 10.8865 315.498 10.7667 315.581 10.6521C315.666 10.5415 315.758 10.4366 315.857 10.3381C315.947 10.2534 316.044 10.1762 316.147 10.1079L316.289 10.021L316.536 9.93604L316.783 9.8501H317.82L318.12 9.93311C318.284 9.97811 318.458 10.033 318.507 10.05L318.596 10.084L318.578 10.1699C318.569 10.2179 318.531 10.4261 318.495 10.6331C318.459 10.8401 318.388 11.2329 318.337 11.5129C318.286 11.7929 318.209 12.2069 318.162 12.4399C318.115 12.6729 318.054 12.9711 318.019 13.1001C317.984 13.2291 317.948 13.366 317.911 13.5C317.876 13.6181 317.832 13.7334 317.78 13.845C317.726 13.957 317.664 14.0653 317.595 14.1689C317.536 14.2543 317.469 14.3343 317.395 14.408C317.307 14.4849 317.214 14.5562 317.117 14.6211L316.944 14.7351L316.444 14.894L316.207 14.907L316.203 14.8979ZM305.043 15.7781L305.468 15.7651L305.735 15.697L306.002 15.6289L306.174 15.5481C306.294 15.4889 306.41 15.4219 306.521 15.3479C306.637 15.2674 306.746 15.178 306.848 15.0801C306.947 14.9795 307.04 14.8732 307.127 14.762C307.165 14.7042 307.21 14.6515 307.261 14.605C307.257 14.7133 307.245 14.8213 307.226 14.928C307.202 15.0974 307.187 15.2679 307.181 15.439V15.6389H308.335L308.353 15.1921L308.37 14.7439L308.453 14.1621C308.498 13.8421 308.571 13.3681 308.616 13.1091C308.661 12.8501 308.736 12.409 308.786 12.134C308.836 11.859 308.913 11.426 308.959 11.176L309.044 10.72V10.3259V9.93311L308.954 9.75L308.865 9.56812L308.745 9.4519L308.624 9.33496L308.424 9.23511L308.224 9.13501L307.635 9.00391L307.227 8.9729L306.821 8.94312L306.298 8.9751C306.009 8.9931 305.604 9.02798 305.398 9.05298L305.022 9.09912H304.508L304.469 9.28003C304.448 9.38003 304.392 9.61493 304.343 9.80493C304.308 9.92094 304.282 10.0392 304.263 10.1589C304.365 10.1434 304.465 10.1204 304.563 10.0901C304.725 10.0461 305.071 9.97493 305.33 9.92993L305.802 9.84912L306.227 9.83203L306.65 9.81396L307.197 9.91406L307.379 10.0039L307.562 10.094L307.662 10.2461L307.762 10.3979V10.6379V10.8779L307.707 11.1421L307.653 11.406H306.521H305.391L305.021 11.5061C304.851 11.5512 304.684 11.6066 304.521 11.6721C304.471 11.699 304.417 11.7201 304.362 11.7351C304.268 11.777 304.178 11.8268 304.092 11.884L303.852 12.033L303.663 12.2219C303.556 12.3294 303.458 12.4453 303.369 12.5681C303.289 12.6959 303.218 12.8295 303.157 12.968L303.057 13.2131L303.009 13.4861L302.961 13.761V14.3369L303.006 14.5759L303.053 14.8159L303.137 14.9719C303.193 15.0707 303.257 15.1647 303.328 15.2529L303.434 15.377L303.622 15.491L303.81 15.605L304.025 15.666C304.142 15.699 304.325 15.7401 304.425 15.7561L304.609 15.7849L305.033 15.7729L305.043 15.7781ZM305.437 14.8989L305.186 14.9121L305.019 14.8701C304.913 14.8417 304.809 14.8032 304.71 14.7551L304.566 14.6821L304.489 14.5901C304.434 14.5206 304.385 14.4457 304.344 14.3669L304.277 14.238L304.263 13.938L304.25 13.6379L304.302 13.4541C304.345 13.3211 304.396 13.1909 304.456 13.0649L304.556 12.8601L304.746 12.6699L304.936 12.4819L305.136 12.3821L305.336 12.282L305.588 12.2219L305.839 12.1631H307.411L307.46 12.1841L307.51 12.2041L307.468 12.4509C307.445 12.5869 307.39 12.8321 307.346 12.9961C307.302 13.1601 307.225 13.396 307.174 13.532C307.123 13.668 307.081 13.7791 307.081 13.7891C307.048 13.8625 307.01 13.9333 306.966 14.001L306.851 14.1941L306.663 14.3811C306.599 14.4512 306.527 14.514 306.449 14.5681C306.399 14.5877 306.351 14.6142 306.308 14.647L306.192 14.7251L305.938 14.8059L305.683 14.887L305.432 14.8999L305.437 14.8989ZM299.874 15.79H300.22L300.612 15.7429C300.828 15.7179 301.112 15.6759 301.251 15.6489C301.416 15.6163 301.579 15.5779 301.74 15.5339C301.831 15.5112 301.92 15.4812 302.006 15.4441C302.045 15.3415 302.073 15.2352 302.089 15.127C302.12 14.965 302.161 14.747 302.178 14.644C302.193 14.5784 302.199 14.5113 302.197 14.4441C302.191 14.4371 302.168 14.4441 302.146 14.4641C302.036 14.5202 301.921 14.5681 301.804 14.6079L301.504 14.7209L301.073 14.804L300.641 14.887L300.274 14.874L299.907 14.8611L299.699 14.7891L299.491 14.717L299.331 14.5759L299.17 14.436L299.063 14.2361L298.957 14.042L298.905 13.782L298.854 13.522V12.8469L298.916 12.438L298.979 12.0291L299.044 11.8091C299.081 11.6881 299.121 11.5471 299.135 11.4951C299.171 11.3828 299.214 11.2725 299.262 11.165C299.319 11.036 299.42 10.835 299.488 10.72L299.609 10.511L299.759 10.356L299.907 10.2009L300.066 10.1011L300.223 10.001L300.423 9.93896C300.567 9.89651 300.713 9.86325 300.861 9.83911L301.097 9.802L301.443 9.82007L301.788 9.83813L302.196 9.91992L302.606 10.001L302.773 10.063C302.864 10.098 302.942 10.125 302.947 10.125C302.969 10.0399 302.985 9.95334 302.995 9.86597C303.018 9.72297 303.057 9.48897 303.083 9.34497C303.104 9.25475 303.115 9.16265 303.116 9.07007C303.027 9.04831 302.935 9.03396 302.843 9.0271C302.7 9.0101 302.313 8.98213 301.983 8.96313L301.383 8.92896L300.959 8.96191L300.535 8.9939L300.222 9.06006L299.907 9.125L299.707 9.20703C299.583 9.25874 299.462 9.31849 299.345 9.38599C299.262 9.43699 299.178 9.48612 299.097 9.54712C298.982 9.64116 298.872 9.74111 298.767 9.84692L298.526 10.084L298.391 10.2839C298.288 10.4453 298.193 10.6122 298.108 10.7839L297.958 11.084L297.843 11.415C297.78 11.596 297.692 11.893 297.643 12.074L297.562 12.405L297.533 12.7051L297.503 13.0051V13.791L297.534 14.02L297.563 14.249L297.663 14.4841L297.756 14.719L297.865 14.8889L297.973 15.0581L298.146 15.228L298.319 15.3989L298.503 15.499L298.685 15.5991L298.926 15.666C299.066 15.7043 299.207 15.7353 299.35 15.759C299.526 15.7788 299.703 15.7895 299.88 15.791L299.874 15.79ZM289.88 15.79H290.225L290.57 15.7581C290.76 15.7411 291.07 15.704 291.262 15.678C291.454 15.652 291.781 15.5909 291.992 15.5449L292.376 15.46L292.395 15.3181C292.406 15.2401 292.449 15.008 292.495 14.802L292.573 14.428L292.555 14.4111L292.538 14.395L292.421 14.4509C292.356 14.4829 292.155 14.5569 291.974 14.6169L291.643 14.7261L291.298 14.793L290.951 14.8591H290.4H289.851L289.663 14.7981C289.547 14.7606 289.434 14.7158 289.323 14.6641L289.174 14.5901L288.926 14.365L288.826 14.196L288.726 14.0271L288.664 13.8149L288.604 13.603V12.8171L288.656 12.4661L288.712 12.116L289.657 12.071L291.406 12.083L293.154 12.093L293.206 11.8701C293.236 11.7461 293.28 11.492 293.306 11.304L293.352 10.9619V10.387L293.302 10.1731L293.253 9.95801L293.171 9.81592C293.119 9.72764 293.059 9.64373 292.993 9.56494C292.931 9.49517 292.862 9.43188 292.787 9.37598C292.724 9.33298 292.603 9.26013 292.517 9.21313L292.359 9.13013L292.084 9.06396L291.811 8.99805L291.472 8.96606L291.135 8.93311L290.821 8.9541L290.507 8.97412L290.13 9.04712L289.753 9.1189L289.518 9.21411C289.368 9.27534 289.221 9.34511 289.078 9.4231C288.958 9.49212 288.843 9.56893 288.733 9.65308C288.655 9.71608 288.52 9.83905 288.433 9.92505C288.329 10.0327 288.233 10.1483 288.147 10.271C288.078 10.371 287.97 10.5579 287.908 10.6799C287.846 10.8019 287.768 10.9711 287.732 11.0571C287.696 11.1431 287.632 11.32 287.586 11.45C287.54 11.58 287.472 11.827 287.431 12C287.383 12.209 287.341 12.4211 287.306 12.6321L287.256 12.95V13.886L287.304 14.0859C287.335 14.2135 287.372 14.3396 287.416 14.4631C287.456 14.5711 287.504 14.6761 287.559 14.7771C287.62 14.8765 287.69 14.9697 287.769 15.0559C287.859 15.1472 287.955 15.2322 288.056 15.3101C288.164 15.3867 288.278 15.4536 288.397 15.51L288.583 15.594L288.839 15.657C288.981 15.691 289.195 15.7321 289.315 15.7471C289.435 15.7621 289.688 15.777 289.879 15.78L289.88 15.79ZM290.471 11.3621C289.601 11.3621 288.89 11.3559 288.89 11.3479C288.89 11.3399 288.928 11.231 288.973 11.105C289.018 10.979 289.098 10.791 289.149 10.687L289.249 10.499L289.457 10.292L289.665 10.085L289.865 9.98511C289.972 9.93364 290.082 9.89006 290.194 9.85498C290.34 9.82853 290.487 9.81116 290.634 9.80298L290.948 9.78296L291.19 9.81396L291.431 9.84497L291.607 9.92505L291.782 10.0061L291.882 10.106C291.936 10.163 291.982 10.2258 292.022 10.293L292.066 10.376L292.095 10.5601L292.125 10.7451L292.091 11.051L292.058 11.3579L290.471 11.3621ZM281.119 18.562L281.137 18.512C281.151 18.4656 281.158 18.4173 281.157 18.3689C281.157 18.3179 281.179 18.1321 281.207 17.9561C281.235 17.7801 281.298 17.3729 281.35 17.0559C281.402 16.7389 281.476 16.2561 281.519 15.9871C281.562 15.7181 281.597 15.4791 281.634 15.2251C281.64 15.1312 281.659 15.0385 281.691 14.95C281.732 14.9939 281.766 15.0443 281.791 15.0991L281.869 15.248L282.044 15.4231L282.218 15.5991L282.432 15.6841L282.647 15.77L282.902 15.802L283.159 15.835L283.483 15.8149L283.807 15.7939L284.159 15.7031L284.51 15.613L284.699 15.5271C284.84 15.4589 284.976 15.3824 285.107 15.2981L285.327 15.155L285.527 14.949C285.653 14.8224 285.772 14.689 285.882 14.5491C285.936 14.4814 285.986 14.4098 286.029 14.335C286.054 14.2824 286.084 14.2326 286.119 14.186C286.203 14.0424 286.277 13.8934 286.341 13.74C286.415 13.567 286.529 13.2551 286.596 13.0481L286.718 12.6709L286.781 12.344C286.815 12.164 286.861 11.8671 286.881 11.6841L286.919 11.3511L286.897 11.0681L286.876 10.7849L286.811 10.502L286.746 10.22L286.639 10.0081L286.533 9.7959L286.327 9.5791L286.122 9.36108L285.638 9.11011L285.37 9.0459L285.103 8.98193L284.836 8.96191L284.569 8.94214L284.269 8.97607L283.969 9.01001L283.726 9.07202L283.483 9.13403L283.272 9.23413C283.143 9.29354 283.018 9.36027 282.897 9.43408C282.825 9.47837 282.755 9.52778 282.69 9.58203C282.651 9.61866 282.609 9.6522 282.564 9.68213L282.482 9.73608L282.54 9.45898C282.572 9.30698 282.599 9.16604 282.599 9.14404V9.10498H281.447L281.347 9.74097C281.291 10.091 281.203 10.6319 281.147 10.9409C281.034 11.6283 280.919 12.3147 280.803 13C280.751 13.3 280.665 13.7831 280.614 14.0681C280.563 14.3531 280.485 14.7681 280.443 14.9951C280.401 15.2221 280.323 15.643 280.27 15.937C280.207 16.283 280.143 16.6291 280.077 16.9751C280.015 17.2991 279.953 17.624 279.889 17.949C279.838 18.208 279.789 18.4489 279.778 18.4919L279.76 18.561H281.113L281.119 18.562ZM283.09 14.9431L282.919 14.9131L282.747 14.8831L282.574 14.803L282.4 14.7229L282.278 14.6069L282.156 14.491L282.085 14.334C282.039 14.2285 282.003 14.1196 281.975 14.0081L281.935 13.8391L281.951 13.5681L281.967 13.2971L282.047 12.8721C282.108 12.5481 282.168 12.2229 282.225 11.8979C282.28 11.5979 282.36 11.1521 282.405 10.9131L282.488 10.478L282.668 10.3281C282.778 10.2379 282.895 10.1555 283.017 10.082L283.187 9.98193L283.407 9.91504L283.626 9.84595L284.193 9.81299L284.422 9.86206L284.653 9.91113L284.816 9.98608L284.979 10.061L285.116 10.198L285.252 10.335L285.325 10.48C285.378 10.5915 285.42 10.7076 285.451 10.8269L285.504 11.0271L285.488 11.627L285.472 12.2271L285.392 12.5801C285.347 12.7741 285.264 13.071 285.204 13.239L285.097 13.5471L284.965 13.7959C284.891 13.9375 284.808 14.0748 284.718 14.207C284.651 14.2997 284.575 14.3856 284.491 14.4631C284.419 14.5251 284.343 14.5861 284.267 14.6431L284.151 14.729L283.618 14.9111L283.093 14.9421L283.09 14.9431Z" fill="#BACAD6"/>
<path d="M200.754 6.05616C201.438 5.82678 202.155 5.7109 202.876 5.71314C204.422 5.71228 205.921 6.24622 207.119 7.22462C208.316 8.20302 209.139 9.56557 209.446 11.0811L214.046 10.1431C213.521 7.56877 212.123 5.25473 210.088 3.59254C208.053 1.93034 205.507 1.02195 202.88 1.02101C201.654 1.01938 200.435 1.21781 199.273 1.60816L200.758 6.05714L200.754 6.05616Z" fill="#BACAD6"/>
<path d="M195.329 20.9553L198.438 17.4353C197.726 16.8061 197.157 16.0325 196.768 15.166C196.378 14.2996 196.178 13.3601 196.18 12.4102C196.178 11.4616 196.378 10.5234 196.768 9.65845C197.157 8.79346 197.726 8.02165 198.438 7.39429L195.329 3.88428C194.119 4.95284 193.151 6.26675 192.489 7.73853C191.826 9.2103 191.484 10.8061 191.486 12.4202C191.485 14.0339 191.827 15.6294 192.49 17.1008C193.153 18.5723 194.12 19.8863 195.329 20.9553Z" fill="#BACAD6"/>
<path d="M209.446 13.7603C209.136 15.2737 208.313 16.6336 207.116 17.6099C205.919 18.5861 204.421 19.1186 202.876 19.1172C202.152 19.1189 201.431 19.0033 200.744 18.7751L199.258 23.2241C200.424 23.6138 201.646 23.8119 202.876 23.8103C205.502 23.8113 208.048 22.9049 210.083 21.2444C212.118 19.5839 213.516 17.2714 214.042 14.6982L209.442 13.7593L209.446 13.7603Z" fill="#BACAD6"/>
<path d="M229.352 16.907C228.967 17.2871 228.511 17.5867 228.009 17.7881C227.507 17.9895 226.97 18.0888 226.429 18.0801C225.679 18.0714 224.947 17.8509 224.317 17.4441L222.793 19.8689C223.872 20.5489 225.118 20.9179 226.393 20.9351C227.31 20.9487 228.221 20.7813 229.073 20.4424C229.925 20.1035 230.703 19.5997 231.36 18.96L229.36 16.908L229.352 16.907ZM226.595 7.02197C224.752 6.99577 222.974 7.70161 221.651 8.98462C220.327 10.2676 219.567 12.0231 219.536 13.866C219.511 15.2494 219.903 16.6081 220.661 17.7659L233.254 12.3789C232.898 10.8727 232.05 9.5282 230.844 8.55786C229.638 7.58752 228.144 7.04682 226.596 7.021M222.422 14.4131C222.402 14.2509 222.392 14.0875 222.393 13.9241C222.41 12.839 222.857 11.8051 223.637 11.0498C224.416 10.2945 225.463 9.87942 226.548 9.896C227.133 9.90302 227.71 10.037 228.238 10.2886C228.766 10.5401 229.234 10.9033 229.608 11.353L222.422 14.4131ZM237.215 3.89209V17.3159L239.542 18.2839L238.442 20.9341L236.135 19.9761C235.671 19.7751 235.276 19.4419 235 19.0181C234.691 18.5199 234.535 17.942 234.55 17.356V3.89307L237.215 3.89209ZM245.615 10.1001C246.035 9.96354 246.474 9.8958 246.915 9.8999C247.858 9.89985 248.773 10.2259 249.503 10.8228C250.234 11.4196 250.736 12.2506 250.924 13.175L253.73 12.5979C253.409 11.0275 252.556 9.61622 251.314 8.60254C250.073 7.58886 248.519 7.03498 246.916 7.03491C246.169 7.03478 245.426 7.15365 244.716 7.38696L245.616 10.105L245.615 10.1001ZM242.301 19.1829L244.201 17.042C243.766 16.6579 243.418 16.1852 243.181 15.6558C242.943 15.1263 242.821 14.5522 242.823 13.9719C242.823 13.3933 242.945 12.8213 243.183 12.2937C243.421 11.7661 243.767 11.295 244.201 10.9119L242.301 8.77002C241.563 9.42261 240.972 10.2246 240.568 11.123C240.163 12.0215 239.954 12.9957 239.955 13.981C239.954 14.9646 240.163 15.9371 240.568 16.8337C240.972 17.7304 241.563 18.5305 242.301 19.1809V19.1829ZM250.925 14.803C250.735 15.7266 250.233 16.5565 249.503 17.1531C248.773 17.7496 247.859 18.0762 246.916 18.0779C246.474 18.0763 246.035 18.0039 245.616 17.863L244.706 20.582C245.418 20.8217 246.164 20.9435 246.916 20.9429C248.519 20.943 250.073 20.3894 251.314 19.3757C252.556 18.362 253.409 16.9504 253.73 15.3799L250.925 14.803Z" fill="#BACAD6"/>
<path d="M347.231 0.88786H341.819C340.284 0.854851 338.758 1.13318 337.334 1.70622C335.91 2.27925 334.617 3.13505 333.533 4.22184C332.449 5.30864 331.596 6.60394 331.026 8.02946C330.457 9.45498 330.182 10.9811 330.219 12.5158C330.248 15.5675 331.485 18.4833 333.659 20.6252C335.833 22.767 338.767 23.9603 341.819 23.9438H347.231C353.519 23.9738 359.26 18.8048 359.26 12.5158C359.243 10.9597 358.917 9.42237 358.302 7.99308C357.686 6.5638 356.793 5.27096 355.674 4.18937C354.555 3.10778 353.233 2.25904 351.784 1.6923C350.334 1.12556 348.787 0.852169 347.231 0.88786ZM341.853 22.9699C339.057 22.9664 336.377 21.8527 334.403 19.8737C332.428 17.8947 331.32 15.2123 331.323 12.4167C331.32 9.62082 332.428 6.93845 334.403 4.95915C336.377 2.97985 339.057 1.86571 341.853 1.86174C344.649 1.86518 347.329 2.97903 349.304 4.95842C351.279 6.93781 352.387 9.62057 352.384 12.4167C352.386 15.2125 351.278 17.8949 349.304 19.8739C347.329 21.853 344.649 22.9667 341.853 22.9699Z" fill="#BACAD6"/>
<path d="M335.197 12.3879C335.199 13.7391 335.609 15.0581 336.374 16.1719C337.139 17.2857 338.223 18.1421 339.483 18.6289V6.14502C338.222 6.63195 337.138 7.48861 336.373 8.60278C335.608 9.71696 335.198 11.0365 335.197 12.3879Z" fill="#BACAD6"/>
<path d="M344.259 6.146V18.6331C345.52 18.1462 346.604 17.2892 347.369 16.1748C348.134 15.0604 348.545 13.7407 348.546 12.3889C348.544 11.0373 348.134 9.71795 347.369 8.60376C346.604 7.48957 345.52 6.63277 344.259 6.146Z" fill="#BACAD6"/>
<path d="M160.463 4.96834L159.391 7.4554H161.539L160.463 4.96834ZM148.098 6.51033C148.202 6.45171 148.287 6.36471 148.344 6.2596C148.401 6.15448 148.427 6.03555 148.419 5.91634C148.426 5.80211 148.399 5.6884 148.341 5.58992C148.282 5.49144 148.196 5.41278 148.092 5.36433C147.858 5.27159 147.605 5.23324 147.354 5.25227H145.437V6.63826H147.328C147.592 6.66483 147.859 6.62073 148.101 6.51033H148.098ZM123.535 4.96834L122.476 7.4554H124.6L123.535 4.96834ZM172.856 20.9053H169.85V19.5672H172.844C173.066 19.5948 173.29 19.5398 173.474 19.4124C173.532 19.3617 173.579 19.299 173.611 19.2288C173.643 19.1586 173.659 19.0826 173.659 19.0054C173.662 18.9264 173.646 18.8477 173.613 18.776C173.58 18.7042 173.53 18.6412 173.468 18.5924C173.308 18.4825 173.113 18.4336 172.92 18.4544C171.459 18.4064 169.635 18.4973 169.635 16.5213C169.635 15.6213 170.235 14.6634 171.869 14.6634H174.969V13.4212H172.088C171.401 13.3872 170.721 13.5659 170.14 13.9324V13.4212H165.878C165.219 13.3848 164.567 13.5645 164.019 13.9324V13.4212H156.408V13.9324C155.765 13.581 155.041 13.4046 154.308 13.4212H149.288V13.9324C148.628 13.5362 147.861 13.3572 147.094 13.4212H141.476L140.19 14.7542L138.99 13.4212H130.598V22.1304H138.831L140.156 20.7764L141.404 22.1304H146.479V20.0814H146.979C147.715 20.1262 148.452 20.022 149.147 19.7752V22.1253H153.333V19.8553H153.533C153.79 19.8553 153.815 19.8654 153.815 20.1124V22.1253H166.533C167.279 22.1547 168.016 21.9603 168.651 21.5672V22.1253H172.685C173.466 22.1522 174.243 22.016 174.968 21.7254V20.1024C174.704 20.3935 174.375 20.6178 174.008 20.7569C173.64 20.896 173.245 20.9459 172.855 20.9024L172.856 20.9053ZM147.044 18.8482H145.101V20.9422H142.075L140.158 18.8763L138.166 20.9422H131.999V14.7003H138.26L140.175 16.7464L142.155 14.7003H147.129C148.364 14.7003 149.752 15.0284 149.752 16.7574C149.752 18.4864 148.402 18.8482 147.042 18.8482H147.044ZM156.384 18.5653C156.598 18.9043 156.689 19.3064 156.642 19.7044V20.9412H155.079V20.1602C155.079 19.7852 155.117 19.2283 154.828 18.9383C154.497 18.7011 154.087 18.6023 153.685 18.6624H152.022V20.9412H150.463V14.6993H154.057C154.696 14.6461 155.338 14.7469 155.93 14.9932C156.184 15.1206 156.396 15.3201 156.538 15.5667C156.681 15.8133 156.747 16.0963 156.73 16.3804C156.737 16.7361 156.635 17.0852 156.438 17.3817C156.242 17.6782 155.96 17.9079 155.63 18.0404C155.928 18.1408 156.192 18.3222 156.392 18.5643L156.384 18.5653ZM162.815 15.9913H159.169V17.1263H162.726V18.3992H159.169V19.6414L162.815 19.6473V20.9422H157.615V14.7003H162.815V15.9913ZM166.815 20.9422H163.783V19.6043H166.803C167.026 19.63 167.252 19.575 167.438 19.4493C167.496 19.3985 167.542 19.3359 167.574 19.2657C167.606 19.1955 167.622 19.1194 167.622 19.0423C167.623 18.9637 167.607 18.8857 167.574 18.8143C167.541 18.7428 167.492 18.6796 167.432 18.6292C167.269 18.5205 167.073 18.4718 166.878 18.4913C165.422 18.4433 163.598 18.5344 163.598 16.5594C163.598 15.6534 164.192 14.7012 165.824 14.7012H168.946V16.0294H166.09C165.876 16.0046 165.659 16.0443 165.467 16.1434C165.39 16.1882 165.326 16.254 165.285 16.3333C165.243 16.4126 165.225 16.5022 165.233 16.5914C165.232 16.6952 165.264 16.7966 165.325 16.8804C165.387 16.9643 165.474 17.0259 165.573 17.0562C165.77 17.1132 165.974 17.1372 166.179 17.1273L167.017 17.1492C167.651 17.0915 168.284 17.2695 168.795 17.6492C168.962 17.8239 169.091 18.0324 169.171 18.2606C169.251 18.4887 169.282 18.7313 169.261 18.9722C169.261 20.3152 168.385 20.9422 166.815 20.9422ZM154.741 16.0924C154.506 15.9961 154.252 15.9574 153.999 15.9793H152.082V17.3792H153.973C154.236 17.4024 154.5 17.3581 154.741 17.2503C154.844 17.1888 154.928 17.1006 154.985 16.9949C155.042 16.8893 155.069 16.7701 155.064 16.6502C155.071 16.5352 155.044 16.421 154.987 16.3211C154.929 16.2213 154.844 16.1401 154.741 16.0882V16.0924ZM172.135 15.9793C171.918 15.9548 171.699 15.9941 171.505 16.0924C171.429 16.139 171.368 16.2055 171.328 16.2847C171.288 16.364 171.271 16.4528 171.278 16.5413C171.276 16.6456 171.308 16.7478 171.369 16.8319C171.431 16.916 171.519 16.9773 171.619 17.0064C171.814 17.0623 172.017 17.0858 172.219 17.0762L173.063 17.0982C173.694 17.0382 174.324 17.2166 174.83 17.5982C174.885 17.6431 174.933 17.6949 174.974 17.7523V15.9764H172.136L172.135 15.9793ZM147.098 15.9793H145.068V17.5694H147.08C147.68 17.5694 148.05 17.2844 148.05 16.7454C148.05 16.2064 147.663 15.9783 147.101 15.9783L147.098 15.9793ZM133.551 15.9793V17.1143H136.968V18.3873H133.551V19.6292H137.379L139.157 17.7984L137.457 15.9793H133.551ZM143.546 20.3443V15.3443L141.156 17.8053L143.546 20.3472V20.3443ZM133.682 10.3233V11.3983H146.688L146.682 9.12337H146.934C147.11 9.12937 147.161 9.14442 147.161 9.42342V11.3992H153.888V10.8692C154.668 11.2388 155.525 11.4203 156.388 11.3992H159.218L159.824 10.0123H161.167L161.76 11.3992H167.213V10.0824L168.038 11.3983H172.409V2.69832H168.084V3.72639L167.478 2.69832H163.04V3.72639L162.485 2.69832H156.49C155.595 2.65648 154.703 2.83078 153.89 3.20637V2.69832H149.753V3.20637C149.246 2.83303 148.623 2.65282 147.995 2.69832H132.882L131.868 4.94636L130.826 2.69832H126.066V3.72639L125.543 2.69832H121.484L119.599 6.83626V10.1463L122.387 3.90633H124.7L127.347 9.81526V3.90633H129.888L131.925 8.13924L133.797 3.90633H136.389V10.1463H134.789L134.783 5.25935L132.526 10.1463H131.163L128.9 5.25545V10.1463H125.735L125.135 8.75545H121.894L121.294 10.1463H119.604V11.4024H122.264L122.864 10.0164H124.207L124.807 11.4024H130.041V10.3414L130.508 11.4063H133.225L133.692 10.3253L133.682 10.3233ZM154.182 4.63142C154.843 4.08626 155.693 3.82454 156.546 3.9034H158.053V5.24031H156.578C156.363 5.21422 156.145 5.23369 155.938 5.29744C155.732 5.36119 155.541 5.46792 155.378 5.61043C155.053 6.00691 154.893 6.51291 154.93 7.02425C154.884 7.5491 155.037 8.0721 155.359 8.48933C155.667 8.73022 156.055 8.84532 156.444 8.81135H157.144L159.338 3.90437H161.671L164.306 9.80427V3.90437H166.676L169.413 8.25032V3.90437H171.007V10.1444H168.801L165.85 5.46028V10.1444H162.68L162.074 8.75227H158.841L158.253 10.1444H156.431C155.62 10.194 154.819 9.94904 154.174 9.45442C153.874 9.13919 153.645 8.76359 153.502 8.35286C153.358 7.94213 153.304 7.50563 153.343 7.07234C153.307 6.62979 153.363 6.18458 153.508 5.76472C153.652 5.34487 153.882 4.95851 154.182 4.63142ZM150.982 3.9034H152.563V10.1434H150.975L150.982 3.9034ZM143.82 3.9034H147.401C148.044 3.84228 148.693 3.94555 149.286 4.20344C149.538 4.33153 149.747 4.53057 149.887 4.7762C150.027 5.02183 150.092 5.30311 150.074 5.58528C150.08 5.94134 149.979 6.29114 149.782 6.58821C149.586 6.88528 149.304 7.11573 148.974 7.24934C149.272 7.35377 149.538 7.53472 149.745 7.77425C149.961 8.11442 150.052 8.51922 150.003 8.91926V10.1453H148.432L148.427 9.35823C148.491 8.93689 148.404 8.50671 148.181 8.14339C147.851 7.91164 147.445 7.81561 147.046 7.87532H145.375V10.1453H143.818V3.90535L143.82 3.9034ZM137.545 3.9034H142.745V5.20344H139.102V6.32844H142.658V7.60725H139.102V8.85335H142.745V10.1434H137.545V3.9034Z" fill="#BACAD6"/>
</g>
<defs>
<clipPath id="clip0_48_4618">
<rect width="358.52" height="24.83" fill="white" transform="translate(0.73999)"/>
</clipPath>
</defs>
</svg>
