<svg width="42" height="42" viewBox="0 0 42 42" fill="none" xmlns="http://www.w3.org/2000/svg">
<rect x="1" y="1" width="40" height="40" fill="url(#paint0_linear_50_6718)" fill-opacity="0.25"/>
<rect x="1" y="1" width="40" height="40" stroke="url(#paint1_linear_50_6718)" stroke-opacity="0.5" stroke-width="0.5"/>
<path d="M18.0491 23.4712L17.4287 28.1426L20.7061 26.1762C20.813 26.1121 20.8664 26.08 20.9235 26.0675C20.974 26.0564 21.0262 26.0564 21.0767 26.0675C21.1337 26.08 21.1872 26.1121 21.2941 26.1762L24.5715 28.1426L23.9515 23.4692M24.1614 15.4633C24.2717 15.7301 24.4835 15.9421 24.7501 16.0529L25.685 16.4401C25.9518 16.5507 26.1638 16.7626 26.2743 17.0295C26.3849 17.2963 26.3849 17.5961 26.2743 17.8629L25.8874 18.7972C25.7768 19.0641 25.7766 19.3642 25.8877 19.631L26.274 20.565C26.3288 20.6972 26.357 20.8388 26.357 20.9819C26.3571 21.125 26.3289 21.2666 26.2742 21.3988C26.2194 21.531 26.1392 21.6511 26.038 21.7522C25.9368 21.8533 25.8167 21.9336 25.6845 21.9883L24.7503 22.3753C24.4835 22.4856 24.2714 22.6973 24.1607 22.964L23.7735 23.8989C23.6629 24.1657 23.451 24.3777 23.1841 24.4882C22.9173 24.5988 22.6175 24.5988 22.3507 24.4882L21.4165 24.1012C21.1497 23.991 20.85 23.9912 20.5833 24.1019L19.6484 24.4886C19.3818 24.5989 19.0822 24.5988 18.8156 24.4883C18.549 24.3779 18.3372 24.1662 18.2266 23.8996L17.8392 22.9644C17.7289 22.6976 17.5172 22.4855 17.2505 22.3748L16.3156 21.9875C16.0489 21.8771 15.837 21.6652 15.7265 21.3985C15.6159 21.1319 15.6157 20.8322 15.726 20.5654L16.113 19.6312C16.2233 19.3643 16.223 19.0646 16.1124 18.798L15.726 17.8624C15.6712 17.7302 15.643 17.5885 15.6429 17.4455C15.6429 17.3024 15.6711 17.1608 15.7258 17.0286C15.7806 16.8964 15.8608 16.7763 15.962 16.6752C16.0632 16.5741 16.1833 16.4938 16.3155 16.4391L17.2497 16.0521C17.5163 15.9419 17.7282 15.7304 17.839 15.4641L18.2263 14.5292C18.3368 14.2623 18.5488 14.0503 18.8156 13.9398C19.0824 13.8293 19.3822 13.8293 19.649 13.9398L20.5832 14.3268C20.85 14.4371 21.1497 14.4368 21.4164 14.3262L22.3517 13.9404C22.6185 13.83 22.9182 13.83 23.1849 13.9405C23.4517 14.051 23.6636 14.2629 23.7742 14.5297L24.1615 15.4649L24.1614 15.4633Z" stroke="#DDE0EB" stroke-width="1.42857" stroke-linecap="round" stroke-linejoin="round"/>
<defs>
<linearGradient id="paint0_linear_50_6718" x1="41" y1="21" x2="1" y2="21" gradientUnits="userSpaceOnUse">
<stop stop-color="#D9D9D9"/>
<stop offset="1" stop-color="#D9D9D9" stop-opacity="0"/>
</linearGradient>
<linearGradient id="paint1_linear_50_6718" x1="1" y1="21" x2="41" y2="21" gradientUnits="userSpaceOnUse">
<stop stop-color="white"/>
<stop offset="1" stop-color="white" stop-opacity="0"/>
</linearGradient>
</defs>
</svg>
