<svg width="256" height="256" viewBox="0 0 256 256" fill="none" xmlns="http://www.w3.org/2000/svg">
<g clip-path="url(#clip0_529_32)">
<path d="M33.6245 109.396L46.6949 109.396C46.9183 110.066 47.5726 110.64 48.6579 111.119C49.7431 111.566 51.1953 111.917 53.0147 112.172C54.8659 112.396 57.0044 112.508 59.4302 112.508C61.824 112.508 63.7072 112.444 65.0796 112.316C66.484 112.156 67.4735 111.901 68.048 111.55C68.6225 111.167 68.9098 110.656 68.9098 110.018C68.9098 109.412 68.447 108.949 67.5214 108.63C66.5957 108.278 64.952 108.039 62.59 107.911C60.2281 107.784 56.9086 107.72 52.6316 107.72C49.4398 107.72 46.6789 107.576 44.3489 107.289C42.0508 106.97 40.1517 106.491 38.6516 105.853C37.1834 105.182 36.0982 104.353 35.396 103.363C34.6938 102.342 34.3427 101.129 34.3427 99.7244C34.3427 97.2987 35.1566 95.3038 36.7844 93.7398C38.4441 92.1439 40.9337 90.963 44.2532 90.1969C47.6046 89.399 51.7858 89 56.7969 89C64.1381 89 69.7397 90.0693 73.6017 92.2078C77.4957 94.3143 79.4427 97.3625 79.4427 101.352L67.0426 101.352C66.883 100.299 65.8935 99.501 64.0742 98.9584C62.2549 98.3839 59.6695 98.0966 56.3182 98.0966C52.9987 98.0966 50.5251 98.2881 48.8972 98.6711C47.3013 99.0541 46.5034 99.7085 46.5034 100.634C46.5034 101.113 46.7268 101.496 47.1737 101.783C47.6205 102.07 48.3866 102.31 49.4718 102.501C50.5889 102.661 52.1529 102.773 54.1637 102.836C56.1745 102.9 58.728 102.932 61.824 102.932C65.2392 102.932 68.1438 103.108 70.5376 103.459C72.9314 103.778 74.8625 104.273 76.3307 104.943C77.8308 105.613 78.9161 106.475 79.5863 107.528C80.2566 108.55 80.5917 109.763 80.5917 111.167C80.5917 113.593 79.8257 115.572 78.2937 117.104C76.7616 118.636 74.3358 119.769 71.0164 120.503C67.6969 121.237 63.3561 121.604 57.9939 121.604C54.9616 121.604 52.1688 121.429 49.6154 121.078C47.0939 120.726 44.8437 120.216 42.8648 119.545C40.8858 118.843 39.2101 117.997 37.8377 117.008C36.4652 115.987 35.4119 114.854 34.6778 113.609C33.9756 112.332 33.6245 110.928 33.6245 109.396Z" fill="white"/>
<path d="M196.204 107.863C196.044 110.896 194.943 113.433 192.9 115.476C190.858 117.519 187.841 119.051 183.852 120.072C179.894 121.093 174.883 121.604 168.818 121.604C164.19 121.604 160.041 121.349 156.37 120.838C152.7 120.359 149.572 119.53 146.987 118.349C144.401 117.136 142.422 115.492 141.05 113.417C139.677 111.343 138.991 108.725 138.991 105.565C138.991 102.406 139.677 99.7723 141.05 97.6657C142.422 95.5272 144.401 93.8356 146.987 92.5908C149.572 91.314 152.7 90.4044 156.37 89.8618C160.041 89.3192 164.19 89.0479 168.818 89.0479C174.883 89.0479 179.91 89.6064 183.9 90.7236C187.889 91.8088 190.906 93.4206 192.948 95.5591C194.991 97.6976 196.092 100.299 196.252 103.363L183.804 103.363C183.421 102.342 182.719 101.448 181.697 100.682C180.676 99.884 179.144 99.2616 177.101 98.8148C175.058 98.3679 172.297 98.1445 168.818 98.1445C164.733 98.1445 161.413 98.3998 158.86 98.9105C156.307 99.3893 154.439 100.171 153.258 101.256C152.077 102.342 151.487 103.778 151.487 105.565C151.487 107.193 152.077 108.518 153.258 109.539C154.439 110.561 156.307 111.311 158.86 111.789C161.413 112.268 164.733 112.508 168.818 112.508C172.297 112.508 175.042 112.3 177.053 111.885C179.096 111.47 180.628 110.912 181.649 110.209C182.671 109.475 183.373 108.693 183.756 107.863L196.204 107.863Z" fill="white"/>
<path d="M202.495 135.907L202.495 90.0054L239.504 90.0054C242.409 90.0054 245.01 90.3406 247.308 91.0108C249.638 91.6492 251.473 92.7344 252.814 94.2665C254.186 95.7985 254.873 97.8891 254.873 100.538C254.873 102.294 254.553 103.746 253.915 104.895C253.277 106.044 252.399 106.938 251.282 107.576C250.165 108.215 248.888 108.677 247.452 108.965C246.015 109.252 244.515 109.427 242.951 109.491L239.456 108.821C243.254 108.853 246.175 109.013 248.218 109.3C250.292 109.587 251.729 110.114 252.527 110.88C253.357 111.614 253.771 112.683 253.771 114.087L253.771 120.647L241.802 120.647L241.802 115.524C241.802 114.566 241.611 113.848 241.228 113.369C240.877 112.859 240.079 112.508 238.834 112.316C237.621 112.125 235.738 112.029 233.184 112.029L214.465 112.029L214.465 135.907L202.495 135.907ZM214.465 104.033L239.504 104.033C240.462 104.033 241.26 103.874 241.898 103.555C242.568 103.235 242.903 102.629 242.903 101.735C242.903 100.905 242.568 100.347 241.898 100.06C241.26 99.7404 240.462 99.5808 239.504 99.5808L214.465 99.5808L214.465 104.033Z" fill="white"/>
<path d="M273.469 107.72L273.469 111.55L309.856 111.55L309.856 120.647L261.5 120.647L261.5 90.0054L309.76 90.0054L309.76 99.102L273.469 99.102L273.469 102.932L303.153 102.932L303.153 107.72L273.469 107.72Z" fill="white"/>
<path d="M314.148 90.0054L363.94 90.0054L363.94 99.102L314.148 99.102L314.148 90.0054ZM333.059 98.4796L345.028 98.4796L345.028 120.647L333.059 120.647L333.059 98.4796Z" fill="white"/>
<path d="M367.033 109.396L380.103 109.396C380.327 110.066 380.981 110.64 382.066 111.119C383.151 111.566 384.604 111.917 386.423 112.172C388.274 112.396 390.413 112.508 392.839 112.508C395.232 112.508 397.116 112.444 398.488 112.316C399.892 112.156 400.882 111.901 401.456 111.55C402.031 111.167 402.318 110.656 402.318 110.018C402.318 109.412 401.855 108.949 400.93 108.63C400.004 108.278 398.36 108.039 395.998 107.911C393.636 107.784 390.317 107.72 386.04 107.72C382.848 107.72 380.087 107.576 377.757 107.289C375.459 106.97 373.56 106.491 372.06 105.853C370.592 105.182 369.507 104.353 368.804 103.363C368.102 102.342 367.751 101.129 367.751 99.7244C367.751 97.2987 368.565 95.3038 370.193 93.7398C371.852 92.1439 374.342 90.963 377.662 90.1969C381.013 89.399 385.194 89 390.205 89C397.546 89 403.148 90.0693 407.01 92.2078C410.904 94.3143 412.851 97.3625 412.851 101.352L400.451 101.352C400.291 100.299 399.302 99.501 397.483 98.9584C395.663 98.3839 393.078 98.0966 389.727 98.0966C386.407 98.0966 383.933 98.2881 382.306 98.6711C380.71 99.0541 379.912 99.7085 379.912 100.634C379.912 101.113 380.135 101.496 380.582 101.783C381.029 102.07 381.795 102.31 382.88 102.501C383.997 102.661 385.561 102.773 387.572 102.836C389.583 102.9 392.136 102.932 395.232 102.932C398.648 102.932 401.552 103.108 403.946 103.459C406.34 103.778 408.271 104.273 409.739 104.943C411.239 105.613 412.324 106.475 412.995 107.528C413.665 108.55 414 109.763 414 111.167C414 113.593 413.234 115.572 411.702 117.104C410.17 118.636 407.744 119.769 404.425 120.503C401.105 121.237 396.764 121.604 391.402 121.604C388.37 121.604 385.577 121.429 383.024 121.078C380.502 120.726 378.252 120.216 376.273 119.545C374.294 118.843 372.618 117.997 371.246 117.008C369.874 115.987 368.82 114.854 368.086 113.609C367.384 112.332 367.033 110.928 367.033 109.396Z" fill="white"/>
<path d="M-225 155.477L-211.93 155.477C-211.706 156.147 -211.052 156.722 -209.967 157.201C-208.881 157.648 -207.429 157.999 -205.61 158.254C-203.759 158.477 -201.62 158.589 -199.194 158.589C-196.801 158.589 -194.917 158.525 -193.545 158.398C-192.14 158.238 -191.151 157.983 -190.577 157.632C-190.002 157.249 -189.715 156.738 -189.715 156.1C-189.715 155.493 -190.178 155.03 -191.103 154.711C-192.029 154.36 -193.673 154.121 -196.034 153.993C-198.396 153.865 -201.716 153.801 -205.993 153.801C-209.185 153.801 -211.946 153.658 -214.276 153.371C-216.574 153.051 -218.473 152.573 -219.973 151.934C-221.441 151.264 -222.526 150.434 -223.229 149.445C-223.931 148.423 -224.282 147.21 -224.282 145.806C-224.282 143.38 -223.468 141.385 -221.84 139.821C-220.18 138.225 -217.691 137.044 -214.371 136.278C-211.02 135.481 -206.839 135.082 -201.828 135.082C-194.486 135.082 -188.885 136.151 -185.023 138.289C-181.129 140.396 -179.182 143.444 -179.182 147.434L-191.582 147.434C-191.742 146.38 -192.731 145.583 -194.55 145.04C-196.37 144.465 -198.955 144.178 -202.306 144.178C-205.626 144.178 -208.099 144.37 -209.727 144.753C-211.323 145.136 -212.121 145.79 -212.121 146.716C-212.121 147.194 -211.898 147.577 -211.451 147.865C-211.004 148.152 -210.238 148.391 -209.153 148.583C-208.036 148.742 -206.472 148.854 -204.461 148.918C-202.45 148.982 -199.897 149.014 -196.801 149.014C-193.385 149.014 -190.481 149.189 -188.087 149.54C-185.693 149.86 -183.762 150.354 -182.294 151.025C-180.794 151.695 -179.708 152.557 -179.038 153.61C-178.368 154.631 -178.033 155.844 -178.033 157.249C-178.033 159.674 -178.799 161.653 -180.331 163.185C-181.863 164.717 -184.289 165.85 -187.608 166.585C-190.928 167.319 -195.268 167.686 -200.631 167.686C-203.663 167.686 -206.456 167.51 -209.009 167.159C-211.531 166.808 -213.781 166.297 -215.76 165.627C-217.739 164.925 -219.414 164.079 -220.787 163.09C-222.159 162.068 -223.213 160.935 -223.947 159.69C-224.649 158.414 -225 157.009 -225 155.477Z" fill="white"/>
<path d="M-160.813 153.801L-160.813 157.632L-124.427 157.632L-124.427 166.728L-172.782 166.728L-172.782 136.087L-124.522 136.087L-124.522 145.184L-160.813 145.184L-160.813 149.014L-131.129 149.014L-131.129 153.801L-160.813 153.801Z" fill="white"/>
<path d="M-62.4205 153.945C-62.5801 156.977 -63.6813 159.515 -65.724 161.557C-67.7668 163.6 -70.783 165.132 -74.7728 166.154C-78.7306 167.175 -83.7417 167.686 -89.8061 167.686C-94.4342 167.686 -98.5836 167.43 -102.254 166.92C-105.925 166.441 -109.053 165.611 -111.638 164.43C-114.223 163.217 -116.202 161.573 -117.575 159.499C-118.947 157.424 -119.633 154.807 -119.633 151.647C-119.633 148.487 -118.947 145.854 -117.575 143.747C-116.202 141.609 -114.223 139.917 -111.638 138.672C-109.053 137.396 -105.925 136.486 -102.254 135.943C-98.5836 135.401 -94.4342 135.129 -89.8061 135.129C-83.7417 135.129 -78.7146 135.688 -74.7249 136.805C-70.7351 137.89 -67.7189 139.502 -65.6762 141.641C-63.6334 143.779 -62.5322 146.38 -62.3727 149.445L-74.8206 149.445C-75.2037 148.423 -75.9059 147.53 -76.9272 146.764C-77.9486 145.966 -79.4807 145.343 -81.5234 144.896C-83.5662 144.449 -86.3271 144.226 -89.8061 144.226C-93.8916 144.226 -97.2111 144.481 -99.7645 144.992C-102.318 145.471 -104.185 146.253 -105.366 147.338C-106.547 148.423 -107.138 149.86 -107.138 151.647C-107.138 153.275 -106.547 154.599 -105.366 155.621C-104.185 156.642 -102.318 157.392 -99.7645 157.871C-97.2111 158.35 -93.8916 158.589 -89.8061 158.589C-86.3271 158.589 -83.5821 158.382 -81.5713 157.967C-79.5285 157.552 -77.9965 156.993 -76.9751 156.291C-75.9537 155.557 -75.2515 154.775 -74.8685 153.945L-62.4205 153.945Z" fill="white"/>
<path d="M-56.1292 166.728L-56.1292 136.087L-19.1204 136.087C-16.2158 136.087 -13.6145 136.422 -11.3164 137.092C-8.98643 137.731 -7.15114 138.816 -5.81059 140.348C-4.43812 141.88 -3.75188 143.971 -3.75188 146.62C-3.75188 148.375 -4.07106 149.828 -4.70942 150.977C-5.34778 152.126 -6.22552 153.019 -7.34265 153.658C-8.45978 154.296 -9.73649 154.759 -11.1728 155.046C-12.6091 155.333 -14.1093 155.509 -15.6732 155.573L-19.1682 154.903C-15.37 154.934 -12.4495 155.094 -10.4068 155.381C-8.3321 155.669 -6.8958 156.195 -6.09785 156.961C-5.26799 157.695 -4.85304 158.765 -4.85304 160.169L-4.85304 166.728L-16.8223 166.728L-16.8223 161.605C-16.8223 160.648 -17.0138 159.93 -17.3968 159.451C-17.7479 158.94 -18.5458 158.589 -19.7906 158.398C-21.0035 158.206 -22.8867 158.11 -25.4401 158.11L-44.16 158.11L-44.16 166.728L-56.1292 166.728ZM-44.16 150.115L-19.1204 150.115C-18.1628 150.115 -17.3649 149.955 -16.7265 149.636C-16.0562 149.317 -15.7211 148.711 -15.7211 147.817C-15.7211 146.987 -16.0562 146.428 -16.7265 146.141C-17.3649 145.822 -18.1628 145.662 -19.1204 145.662L-44.16 145.662L-44.16 150.115Z" fill="white"/>
<path d="M14.8445 153.801L14.8445 157.632L75.248 157.632L75.248 166.728L2.87532 166.728L2.87532 136.087L51.1352 136.087L51.1352 145.184L14.8445 145.184L14.8445 149.014L44.5282 149.014L44.5282 153.801L14.8445 153.801Z" fill="white"/>
<path d="M55.5231 136.087L120.432 136.087L120.432 145.184L55.5231 145.184L55.5231 136.087ZM74.4345 144.561L86.4037 144.561L86.4037 166.728L74.4345 166.728L74.4345 144.561Z" fill="white"/>
<path d="M108.408 155.477L121.479 155.477C121.702 156.147 122.356 156.722 123.442 157.201C124.527 157.648 125.979 157.999 127.799 158.254C129.65 158.477 131.788 158.589 134.214 158.589C136.608 158.589 138.491 158.525 139.863 158.398C141.268 158.238 142.257 157.983 142.832 157.632C143.406 157.249 143.694 156.738 143.694 156.1C143.694 155.493 143.231 155.03 142.305 154.711C141.38 154.36 139.736 154.121 137.374 153.993C135.012 153.865 131.692 153.801 127.415 153.801C124.224 153.801 121.463 153.658 119.133 153.371C116.835 153.051 114.936 152.573 113.435 151.934C111.967 151.264 110.882 150.434 110.18 149.445C109.478 148.423 109.127 147.21 109.127 145.806C109.127 143.38 109.94 141.385 111.568 139.821C113.228 138.225 115.718 137.044 119.037 136.278C122.388 135.481 126.57 135.082 131.581 135.082C138.922 135.082 144.523 136.151 148.386 138.289C152.28 140.396 154.227 143.444 154.227 147.434L141.826 147.434C141.667 146.38 140.677 145.583 138.858 145.04C137.039 144.465 134.453 144.178 131.102 144.178C127.783 144.178 125.309 144.37 123.681 144.753C122.085 145.136 121.287 145.79 121.287 146.716C121.287 147.194 121.511 147.577 121.958 147.865C122.404 148.152 123.17 148.391 124.256 148.583C125.373 148.742 126.937 148.854 128.948 148.918C130.958 148.982 133.512 149.014 136.608 149.014C140.023 149.014 142.928 149.189 145.321 149.54C147.715 149.86 149.646 150.354 151.115 151.025C152.615 151.695 153.7 152.557 154.37 153.61C155.04 154.631 155.376 155.844 155.376 157.249C155.376 159.674 154.61 161.653 153.078 163.185C151.545 164.717 149.12 165.85 145.8 166.585C142.481 167.319 138.14 167.686 132.778 167.686C129.746 167.686 126.953 167.51 124.399 167.159C121.878 166.808 119.628 166.297 117.649 165.627C115.67 164.925 113.994 164.079 112.622 163.09C111.249 162.068 110.196 160.935 109.462 159.69C108.759 158.414 108.408 157.009 108.408 155.477Z" fill="white"/>
<path d="M97.7868 107.484L97.7868 111.234L113.373 111.234L101.881 120.141L86 120.141L86 90.1406L134 90.1406L124.571 99.0469L97.7868 99.0469L97.7868 102.797L122.213 102.797L116.909 107.484L97.7868 107.484Z" fill="#B8B8B8"/>
</g>
<defs>
<clipPath id="clip0_529_32">
<rect width="256" height="256" fill="white"/>
</clipPath>
</defs>
</svg>
