<svg width="42" height="42" viewBox="0 0 42 42" fill="none" xmlns="http://www.w3.org/2000/svg">
<rect x="1" y="1" width="40" height="40" fill="url(#paint0_linear_34_942)" fill-opacity="0.25"/>
<rect x="1" y="1" width="40" height="40" stroke="url(#paint1_linear_34_942)" stroke-opacity="0.5" stroke-width="0.625"/>
<path d="M26.2191 23.9877V21.5109C26.2191 21.363 26.2191 21.2891 26.1965 21.2238C26.1766 21.1661 26.1441 21.1135 26.1014 21.0698C26.0531 21.0205 25.9869 20.9874 25.8546 20.9213L22.0988 19.0434M15.5063 19.8674V25.4765C15.5063 25.783 15.5063 25.9362 15.5541 26.0704C15.5964 26.189 15.6652 26.2963 15.7555 26.3842C15.8575 26.4835 15.9968 26.5474 16.2754 26.6751L21.5494 29.0923C21.7515 29.1849 21.8525 29.2313 21.9578 29.2495C22.0511 29.2657 22.1464 29.2657 22.2397 29.2495C22.345 29.2313 22.446 29.1849 22.6481 29.0923L27.9221 26.6751C28.2007 26.5474 28.34 26.4835 28.4421 26.3842C28.5323 26.2963 28.6012 26.189 28.6434 26.0704C28.6913 25.9362 28.6913 25.783 28.6913 25.4765V19.8674M13.8582 19.0434L21.8039 15.0705C21.912 15.0164 21.9661 14.9894 22.0228 14.9787C22.073 14.9693 22.1245 14.9693 22.1747 14.9787C22.2314 14.9894 22.2855 15.0164 22.3936 15.0705L30.3394 19.0434L22.3936 23.0162C22.2855 23.0703 22.2314 23.0973 22.1747 23.108C22.1245 23.1174 22.073 23.1174 22.0228 23.108C21.9661 23.0973 21.912 23.0703 21.8039 23.0162L13.8582 19.0434Z" stroke="#DDE0EB" stroke-width="1.43" stroke-linecap="round" stroke-linejoin="round"/>
<defs>
<linearGradient id="paint0_linear_34_942" x1="41" y1="21" x2="1" y2="21" gradientUnits="userSpaceOnUse">
<stop stop-color="#D9D9D9"/>
<stop offset="1" stop-color="#D9D9D9" stop-opacity="0"/>
</linearGradient>
<linearGradient id="paint1_linear_34_942" x1="1" y1="21" x2="41" y2="21" gradientUnits="userSpaceOnUse">
<stop stop-color="white"/>
<stop offset="1" stop-color="white" stop-opacity="0"/>
</linearGradient>
</defs>
</svg>
