<svg width="37" height="48" viewBox="0 0 37 48" fill="none" xmlns="http://www.w3.org/2000/svg">
<path fill-rule="evenodd" clip-rule="evenodd" d="M32.723 0H3.63589C2.67159 0 1.74679 0.361219 1.06493 1.00419C0.383067 1.64717 9.98074e-07 2.51923 9.98074e-07 3.42853V46.5301C-0.000314924 46.7911 0.0743744 47.0474 0.216131 47.2716C0.357888 47.4958 0.561417 47.6796 0.80509 47.8035C1.02954 47.9387 1.29201 48.007 1.55824 47.9994C1.85137 47.9987 2.13872 47.9225 2.3893 47.779L18.1794 38.473L33.9696 47.779C34.2081 47.9139 34.4801 47.9871 34.7582 47.9914C35.0363 47.9957 35.3107 47.9309 35.5538 47.8035C35.7975 47.6796 36.001 47.4958 36.1428 47.2716C36.2845 47.0474 36.3592 46.7911 36.3589 46.5301V23.6805C35.4783 23.9377 34.4949 24.0663 33.4086 24.0663C33.353 24.0663 33.2976 24.066 33.2424 24.0653V43.8852L19.0105 35.4853C18.7606 35.3401 18.4729 35.2632 18.1794 35.2632C17.886 35.2632 17.5982 35.3401 17.3484 35.4853L3.11648 43.8852V3.42853C3.11648 3.29863 3.1712 3.17405 3.26861 3.0822C3.36602 2.99034 3.49813 2.93874 3.63589 2.93874H32.723C32.8608 2.93874 32.9929 2.99034 33.0903 3.0822C33.1877 3.17405 33.2424 3.29863 33.2424 3.42853V7.04622C33.2976 7.0455 33.353 7.04514 33.4086 7.04514C34.4949 7.04514 35.4783 7.17797 36.3589 7.44362V3.42853C36.3589 2.51923 35.9758 1.64717 35.294 1.00419C34.6121 0.361219 33.6873 0 32.723 0Z" fill="#8A272D"/>
</svg>
