<svg width="42" height="42" viewBox="0 0 42 42" fill="none" xmlns="http://www.w3.org/2000/svg">
<rect x="1" y="1" width="40" height="40" fill="url(#paint0_linear_50_6767)" fill-opacity="0.25"/>
<rect x="1" y="1" width="40" height="40" stroke="url(#paint1_linear_50_6767)" stroke-opacity="0.5" stroke-width="0.5"/>
<path d="M20.4286 27.0955C24.1105 27.0955 27.0953 24.1108 27.0953 20.4289C27.0953 16.747 24.1105 13.7622 20.4286 13.7622C16.7467 13.7622 13.762 16.747 13.762 20.4289C13.762 24.1108 16.7467 27.0955 20.4286 27.0955Z" stroke="#DDE0EB"/>
<path d="M20.4286 23.7622V19.7622" stroke="#DDE0EB" stroke-linecap="round"/>
<path d="M20.4286 17.0954C20.7968 17.0954 21.0953 17.3939 21.0953 17.762C21.0953 18.1302 20.7968 18.4287 20.4286 18.4287C20.0604 18.4287 19.762 18.1302 19.762 17.762C19.762 17.3939 20.0604 17.0954 20.4286 17.0954Z" fill="#DDE0EB"/>
<defs>
<linearGradient id="paint0_linear_50_6767" x1="41" y1="21" x2="1" y2="21" gradientUnits="userSpaceOnUse">
<stop stop-color="#D9D9D9"/>
<stop offset="1" stop-color="#D9D9D9" stop-opacity="0"/>
</linearGradient>
<linearGradient id="paint1_linear_50_6767" x1="1" y1="21" x2="41" y2="21" gradientUnits="userSpaceOnUse">
<stop stop-color="white"/>
<stop offset="1" stop-color="white" stop-opacity="0"/>
</linearGradient>
</defs>
</svg>
