<svg width="52" height="52" viewBox="0 0 52 52" fill="none" xmlns="http://www.w3.org/2000/svg">
<path fill-rule="evenodd" clip-rule="evenodd" d="M39.4484 3.25H11.8762C10.9621 3.25 10.0855 3.59241 9.43915 4.20189C8.7928 4.81138 8.42969 5.63802 8.42969 6.49996V47.3566C8.42939 47.6041 8.50019 47.847 8.63456 48.0595C8.76894 48.2721 8.96186 48.4463 9.19285 48.5637C9.4056 48.6919 9.65441 48.7567 9.90677 48.7495C10.1846 48.7487 10.457 48.6765 10.6945 48.5405L25.6623 39.7192L40.63 48.5405C40.8561 48.6684 41.114 48.7378 41.3776 48.7419C41.6412 48.746 41.9013 48.6845 42.1317 48.5637C42.3627 48.4463 42.5556 48.2721 42.69 48.0595C42.8244 47.847 42.8952 47.6041 42.8949 47.3566V25.6971C42.0602 25.941 41.128 26.0629 40.0983 26.0629C40.0455 26.0629 39.993 26.0625 39.9407 26.0619V44.8495L26.4501 36.8871C26.2132 36.7495 25.9405 36.6766 25.6623 36.6766C25.3841 36.6766 25.1114 36.7495 24.8745 36.8871L11.3838 44.8495V6.49996C11.3838 6.37683 11.4357 6.25873 11.5281 6.17167C11.6204 6.0846 11.7456 6.03568 11.8762 6.03568H39.4484C39.5789 6.03568 39.7042 6.0846 39.7965 6.17167C39.8889 6.25873 39.9407 6.37683 39.9407 6.49996V9.92923C39.993 9.92855 40.0455 9.92821 40.0983 9.92821C41.128 9.92821 42.0602 10.0541 42.8949 10.3059V6.49996C42.8949 5.63802 42.5318 4.81138 41.8854 4.20189C41.2391 3.59241 40.3624 3.25 39.4484 3.25Z" fill="#D9D9D9"/>
</svg>
