<svg width="1920" height="800" viewBox="0 0 1920 800" fill="none" xmlns="http://www.w3.org/2000/svg">
<g clip-path="url(#clip0_134_72)">
<path d="M1919.5 673.5V800.5H1792.5V673.5H1919.5ZM1791.5 673.5V800.5H1664.5V673.5H1791.5ZM1663.5 673.5V800.5H1536.5V673.5H1663.5ZM1535.5 673.5V800.5H1408.5V673.5H1535.5ZM1919.5 545.5V672.5H1792.5V545.5H1919.5ZM1791.5 545.5V672.5H1664.5V545.5H1791.5ZM1663.5 545.5V672.5H1536.5V545.5H1663.5ZM1535.5 545.5V672.5H1408.5V545.5H1535.5ZM1919.5 417.5V544.5H1792.5V417.5H1919.5ZM1791.5 417.5V544.5H1664.5V417.5H1791.5ZM1663.5 417.5V544.5H1536.5V417.5H1663.5ZM1535.5 417.5V544.5H1408.5V417.5H1535.5ZM1919.5 289.5V416.5H1792.5V289.5H1919.5ZM1791.5 289.5V416.5H1664.5V289.5H1791.5ZM1663.5 289.5V416.5H1536.5V289.5H1663.5ZM1535.5 289.5V416.5H1408.5V289.5H1535.5Z" stroke="url(#paint0_radial_134_72)"/>
<path opacity="0.2" d="M511.5 384.5V511.5H384.5V384.5H511.5ZM383.5 384.5V511.5H256.5V384.5H383.5ZM255.5 384.5V511.5H128.5V384.5H255.5ZM127.5 384.5V511.5H0.5V384.5H127.5ZM511.5 256.5V383.5H384.5V256.5H511.5ZM383.5 256.5V383.5H256.5V256.5H383.5ZM255.5 256.5V383.5H128.5V256.5H255.5ZM127.5 256.5V383.5H0.5V256.5H127.5ZM511.5 128.5V255.5H384.5V128.5H511.5ZM383.5 128.5V255.5H256.5V128.5H383.5ZM255.5 128.5V255.5H128.5V128.5H255.5ZM127.5 128.5V255.5H0.5V128.5H127.5ZM511.5 0.5V127.5H384.5V0.5H511.5ZM383.5 0.5V127.5H256.5V0.5H383.5ZM255.5 0.5V127.5H128.5V0.5H255.5ZM127.5 0.5V127.5H0.5V0.5H127.5Z" stroke="url(#paint1_radial_134_72)"/>
</g>
<defs>
<radialGradient id="paint0_radial_134_72" cx="0" cy="0" r="1" gradientUnits="userSpaceOnUse" gradientTransform="translate(1664 545) rotate(90) scale(256)">
<stop stop-color="#DDE0EB"/>
<stop offset="1" stop-color="#DDE0EB" stop-opacity="0.05"/>
</radialGradient>
<radialGradient id="paint1_radial_134_72" cx="0" cy="0" r="1" gradientUnits="userSpaceOnUse" gradientTransform="translate(256 256) rotate(90) scale(256)">
<stop stop-color="#DDE0EB"/>
<stop offset="1" stop-color="#DDE0EB" stop-opacity="0.05"/>
</radialGradient>
<clipPath id="clip0_134_72">
<rect width="1920" height="801" fill="white"/>
</clipPath>
</defs>
</svg>
