<svg width="38" height="38" viewBox="0 0 38 38" fill="none" xmlns="http://www.w3.org/2000/svg">
<rect x="1" y="1" width="36" height="36" fill="url(#paint0_linear_83_78)" fill-opacity="0.25"/>
<rect x="1" y="1" width="36" height="36" stroke="url(#paint1_linear_83_78)" stroke-opacity="0.5" stroke-width="0.390625"/>
<path d="M25.25 10.875H14.625C13.962 10.875 13.3261 11.1384 12.8572 11.6072C12.3884 12.0761 12.125 12.712 12.125 13.375V26.5C12.125 26.6658 12.1908 26.8247 12.3081 26.9419C12.4253 27.0592 12.5842 27.125 12.75 27.125H24C24.1658 27.125 24.3247 27.0592 24.4419 26.9419C24.5592 26.8247 24.625 26.6658 24.625 26.5C24.625 26.3342 24.5592 26.1753 24.4419 26.0581C24.3247 25.9408 24.1658 25.875 24 25.875H13.375C13.375 25.5435 13.5067 25.2255 13.7411 24.9911C13.9755 24.7567 14.2935 24.625 14.625 24.625H25.25C25.4158 24.625 25.5747 24.5592 25.6919 24.4419C25.8092 24.3247 25.875 24.1658 25.875 24V11.5C25.875 11.3342 25.8092 11.1753 25.6919 11.0581C25.5747 10.9408 25.4158 10.875 25.25 10.875ZM24.625 23.375H14.625C14.186 23.3743 13.7547 23.49 13.375 23.7102V13.375C13.375 13.0435 13.5067 12.7255 13.7411 12.4911C13.9755 12.2567 14.2935 12.125 14.625 12.125H24.625V23.375Z" fill="#DDE0EB"/>
<defs>
<linearGradient id="paint0_linear_83_78" x1="37" y1="19" x2="1" y2="19" gradientUnits="userSpaceOnUse">
<stop stop-color="#D9D9D9"/>
<stop offset="1" stop-color="#D9D9D9" stop-opacity="0"/>
</linearGradient>
<linearGradient id="paint1_linear_83_78" x1="1" y1="19" x2="37" y2="19" gradientUnits="userSpaceOnUse">
<stop stop-color="white"/>
<stop offset="1" stop-color="white" stop-opacity="0"/>
</linearGradient>
</defs>
</svg>
