<svg width="38" height="38" viewBox="0 0 38 38" fill="none" xmlns="http://www.w3.org/2000/svg">
<rect x="1" y="1" width="36" height="36" fill="url(#paint0_linear_83_75)" fill-opacity="0.25"/>
<rect x="1" y="1" width="36" height="36" stroke="url(#paint1_linear_83_75)" stroke-opacity="0.5" stroke-width="0.390625"/>
<path d="M25.25 12.125H12.75C12.4185 12.125 12.1005 12.2567 11.8661 12.4911C11.6317 12.7255 11.5 13.0435 11.5 13.375V17.75C11.5 21.8688 13.4938 24.3648 15.1664 25.7336C16.968 27.207 18.7602 27.707 18.8383 27.7281C18.9457 27.7573 19.059 27.7573 19.1664 27.7281C19.2445 27.707 21.0344 27.207 22.8383 25.7336C24.5063 24.3648 26.5 21.8688 26.5 17.75V13.375C26.5 13.0435 26.3683 12.7255 26.1339 12.4911C25.8995 12.2567 25.5815 12.125 25.25 12.125ZM25.25 17.75C25.25 20.6461 24.1828 22.9969 22.0781 24.7359C21.1619 25.4904 20.12 26.0775 19 26.4703C17.8947 26.0843 16.8656 25.5076 15.9594 24.7664C13.8297 23.0242 12.75 20.6641 12.75 17.75V13.375H25.25V17.75ZM15.4328 20.0672C15.3155 19.9499 15.2497 19.7909 15.2497 19.625C15.2497 19.4591 15.3155 19.3001 15.4328 19.1828C15.5501 19.0655 15.7091 18.9997 15.875 18.9997C16.0409 18.9997 16.1999 19.0655 16.3172 19.1828L17.75 20.6164L21.6828 16.6828C21.7409 16.6247 21.8098 16.5787 21.8857 16.5473C21.9616 16.5158 22.0429 16.4997 22.125 16.4997C22.2071 16.4997 22.2884 16.5158 22.3643 16.5473C22.4402 16.5787 22.5091 16.6247 22.5672 16.6828C22.6253 16.7409 22.6713 16.8098 22.7027 16.8857C22.7342 16.9616 22.7503 17.0429 22.7503 17.125C22.7503 17.2071 22.7342 17.2884 22.7027 17.3643C22.6713 17.4402 22.6253 17.5091 22.5672 17.5672L18.1922 21.9422C18.1341 22.0003 18.0652 22.0464 17.9893 22.0779C17.9135 22.1093 17.8321 22.1255 17.75 22.1255C17.6679 22.1255 17.5865 22.1093 17.5107 22.0779C17.4348 22.0464 17.3659 22.0003 17.3078 21.9422L15.4328 20.0672Z" fill="#DDE0EB"/>
<defs>
<linearGradient id="paint0_linear_83_75" x1="37" y1="19" x2="1" y2="19" gradientUnits="userSpaceOnUse">
<stop stop-color="#D9D9D9"/>
<stop offset="1" stop-color="#D9D9D9" stop-opacity="0"/>
</linearGradient>
<linearGradient id="paint1_linear_83_75" x1="1" y1="19" x2="37" y2="19" gradientUnits="userSpaceOnUse">
<stop stop-color="white"/>
<stop offset="1" stop-color="white" stop-opacity="0"/>
</linearGradient>
</defs>
</svg>
