<svg width="24" height="24" viewBox="0 0 24 24" fill="none" xmlns="http://www.w3.org/2000/svg">
<path d="M4.39704 4.55394L4.47004 4.46994C4.59702 4.34292 4.76538 4.2657 4.94449 4.2523C5.1236 4.2389 5.30157 4.29023 5.44604 4.39694L5.53004 4.46994L12 10.9389L18.47 4.46894C18.5393 4.39734 18.622 4.34025 18.7136 4.30098C18.8051 4.26172 18.9035 4.24108 19.0031 4.24026C19.1027 4.23944 19.2014 4.25846 19.2936 4.29622C19.3857 4.33397 19.4694 4.3897 19.5398 4.46015C19.6102 4.53061 19.6659 4.61437 19.7035 4.70656C19.7412 4.79875 19.7601 4.89752 19.7592 4.9971C19.7583 5.09669 19.7376 5.19509 19.6982 5.28658C19.6589 5.37806 19.6017 5.46079 19.53 5.52994L13.061 11.9999L19.531 18.4699C19.6579 18.5971 19.7349 18.7655 19.7482 18.9446C19.7614 19.1237 19.7099 19.3016 19.603 19.4459L19.53 19.5299C19.403 19.657 19.2347 19.7342 19.0556 19.7476C18.8765 19.761 18.6985 19.7097 18.554 19.6029L18.47 19.5299L12 13.0609L5.53004 19.5309C5.38852 19.6675 5.19903 19.743 5.00238 19.7412C4.80574 19.7394 4.61766 19.6604 4.47867 19.5213C4.33968 19.3822 4.26089 19.194 4.25928 18.9974C4.25766 18.8007 4.33335 18.6113 4.47004 18.4699L10.939 11.9999L4.46904 5.52994C4.34217 5.40283 4.26512 5.23441 4.25191 5.0553C4.2387 4.8762 4.29019 4.6983 4.39704 4.55394Z" fill="#70685F"/>
</svg>
