<svg width="64" height="64" viewBox="0 0 64 64" fill="none" xmlns="http://www.w3.org/2000/svg">
<path d="M30.0587 19.3333C30.0587 18.8029 30.2694 18.2942 30.6445 17.9191C31.0195 17.544 31.5282 17.3333 32.0587 17.3333H44.6667C45.1971 17.3333 45.7058 17.544 46.0809 17.9191C46.456 18.2942 46.6667 18.8029 46.6667 19.3333V31.944C46.6667 32.4744 46.456 32.9831 46.0809 33.3582C45.7058 33.7333 45.1971 33.944 44.6667 33.944C44.1362 33.944 43.6275 33.7333 43.2525 33.3582C42.8774 32.9831 42.6667 32.4744 42.6667 31.944V24.16L28.7467 38.08C28.5621 38.2709 28.3413 38.4232 28.0973 38.5279C27.8532 38.6326 27.5907 38.6876 27.3252 38.6898C27.0596 38.692 26.7963 38.6413 26.5505 38.5406C26.3048 38.4399 26.0816 38.2913 25.8939 38.1034C25.7062 37.9156 25.5578 37.6922 25.4573 37.4464C25.3569 37.2005 25.3064 36.9371 25.3088 36.6716C25.3113 36.406 25.3666 36.1436 25.4715 35.8996C25.5764 35.6557 25.7289 35.4351 25.92 35.2507L39.84 21.3333H32.0587C31.5282 21.3333 31.0195 21.1226 30.6445 20.7475C30.2694 20.3725 30.0587 19.8638 30.0587 19.3333ZM16.4187 14C16.9829 12.2565 18.0851 10.7367 19.567 9.65872C21.0488 8.58073 22.8342 8.00003 24.6667 8H47.3333C49.6319 8 51.8363 8.91309 53.4616 10.5384C55.0869 12.1637 56 14.3681 56 16.6667V39.568C56.0002 41.2794 55.4938 42.9525 54.5447 44.3767C53.5956 45.8008 52.2463 46.9121 50.6667 47.5707V47.9333C50.6667 50.7333 49.2533 52.8533 47.176 54.184C45.176 55.464 42.5973 56.0133 39.9947 55.9973H39.9893L29.1173 55.9867H18.6667C15.5813 55.9867 12.896 55.0213 10.96 53.2C9.02133 51.3707 8 48.8267 8 46V22.6667C8 20.36 8.576 18.1787 9.95733 16.544C11.3813 14.856 13.4507 14 15.8827 14H16.4187ZM16 18H15.8827C14.432 18 13.56 18.4773 13.0133 19.1227C12.4267 19.8213 12 20.9733 12 22.6667V46C12 47.84 12.6453 49.2907 13.7067 50.288C14.7733 51.2933 16.4187 51.9867 18.6667 51.9867H29.12L40 52H40.0107C42.112 52.0107 43.864 51.5573 45.0187 50.816C46.0107 50.1813 46.5707 49.3493 46.656 48.2347H24.6667C22.3681 48.2347 20.1637 47.3216 18.5384 45.6963C16.9131 44.0709 16 41.8665 16 39.568V18ZM24.6667 12C23.429 12 22.242 12.4917 21.3668 13.3668C20.4917 14.242 20 15.429 20 16.6667V39.568C20 42.1467 22.0907 44.2347 24.6667 44.2347H47.3333C48.571 44.2347 49.758 43.743 50.6332 42.8678C51.5083 41.9927 52 40.8057 52 39.568V16.6667C52 15.429 51.5083 14.242 50.6332 13.3668C49.758 12.4917 48.571 12 47.3333 12H24.6667Z" fill="#E07A36"/>
<rect x="26.0209" y="40.1213" width="22.5571" height="3" transform="rotate(135 26.0209 40.1213)" fill="white"/>
</svg>
