<svg width="64" height="64" viewBox="0 0 64 64" fill="none" xmlns="http://www.w3.org/2000/svg">
<path d="M42.6666 10.6667C43.3739 10.6667 44.0521 10.3857 44.5522 9.88563C45.0523 9.38553 45.3333 8.70725 45.3333 8.00001C45.3333 7.29277 45.0523 6.61449 44.5522 6.11439C44.0521 5.61429 43.3739 5.33334 42.6666 5.33334C41.9594 5.33334 41.2811 5.61429 40.781 6.11439C40.2809 6.61449 39.9999 7.29277 39.9999 8.00001C39.9999 8.70725 40.2809 9.38553 40.781 9.88563C41.2811 10.3857 41.9594 10.6667 42.6666 10.6667ZM21.3333 25.3333C21.3333 23.2116 22.1761 21.1768 23.6764 19.6765C25.1767 18.1762 27.2115 17.3333 29.3333 17.3333C31.9854 17.3333 34.529 18.3869 36.4044 20.2623C38.2797 22.1376 39.3333 24.6812 39.3333 27.3333C39.3333 30.5159 38.069 33.5682 35.8186 35.8186C33.5681 38.0691 30.5159 39.3333 27.3333 39.3333C26.8028 39.3333 26.2941 39.5441 25.9191 39.9191C25.544 40.2942 25.3333 40.8029 25.3333 41.3333C25.3333 41.8638 25.544 42.3725 25.9191 42.7476C26.2941 43.1226 26.8028 43.3333 27.3333 43.3333C31.5767 43.3333 35.6464 41.6476 38.647 38.6471C41.6476 35.6465 43.3333 31.5768 43.3333 27.3333C43.3333 19.6 37.0666 13.3333 29.3333 13.3333C26.1507 13.3333 23.0984 14.5976 20.848 16.8481C18.5976 19.0985 17.3333 22.1507 17.3333 25.3333C17.3333 27.9855 18.3868 30.529 20.2622 32.4044C22.1376 34.2798 24.6811 35.3333 27.3333 35.3333C29.455 35.3333 31.4898 34.4905 32.9901 32.9902C34.4904 31.4899 35.3333 29.4551 35.3333 27.3333C35.3333 25.742 34.7011 24.2159 33.5759 23.0907C32.4507 21.9655 30.9246 21.3333 29.3333 21.3333C28.2724 21.3333 27.255 21.7548 26.5049 22.5049C25.7547 23.2551 25.3333 24.2725 25.3333 25.3333C25.3333 25.8638 25.544 26.3725 25.9191 26.7476C26.2941 27.1226 26.8028 27.3333 27.3333 27.3333C27.8637 27.3333 28.3724 27.1226 28.7475 26.7476C29.1226 26.3725 29.3333 25.8638 29.3333 25.3333C29.8637 25.3333 30.3724 25.5441 30.7475 25.9191C31.1226 26.2942 31.3333 26.8029 31.3333 27.3333C31.3333 28.3942 30.9119 29.4116 30.1617 30.1618C29.4116 30.9119 28.3941 31.3333 27.3333 31.3333C25.742 31.3333 24.2159 30.7012 23.0906 29.576C21.9654 28.4508 21.3333 26.9246 21.3333 25.3333ZM51.9999 11.3333C52.5304 11.3333 53.0391 11.5441 53.4142 11.9191C53.7892 12.2942 53.9999 12.8029 53.9999 13.3333V15.3333H55.9999C56.5304 15.3333 57.0391 15.5441 57.4142 15.9191C57.7892 16.2942 57.9999 16.8029 57.9999 17.3333C57.9999 17.8638 57.7892 18.3725 57.4142 18.7476C57.0391 19.1226 56.5304 19.3333 55.9999 19.3333H53.9999V21.3333C53.9999 21.8638 53.7892 22.3725 53.4142 22.7476C53.0391 23.1226 52.5304 23.3333 51.9999 23.3333C51.4695 23.3333 50.9608 23.1226 50.5857 22.7476C50.2107 22.3725 49.9999 21.8638 49.9999 21.3333V19.3333H47.9999C47.4695 19.3333 46.9608 19.1226 46.5857 18.7476C46.2107 18.3725 45.9999 17.8638 45.9999 17.3333C45.9999 16.8029 46.2107 16.2942 46.5857 15.9191C46.9608 15.5441 47.4695 15.3333 47.9999 15.3333H49.9999V13.3333C49.9999 12.8029 50.2107 12.2942 50.5857 11.9191C50.9608 11.5441 51.4695 11.3333 51.9999 11.3333ZM14.6666 34C14.6666 33.638 14.5683 33.2828 14.3823 32.9723C14.1963 32.6618 13.9295 32.4076 13.6103 32.2368C13.2911 32.066 12.9316 31.985 12.5701 32.0025C12.2085 32.02 11.8585 32.1352 11.5573 32.336L3.55728 37.6693C3.33561 37.8136 3.14476 38.0005 2.99577 38.219C2.84679 38.4375 2.74264 38.6835 2.68934 38.9425C2.63604 39.2016 2.63466 39.4687 2.68528 39.7283C2.73589 39.9879 2.8375 40.2349 2.98421 40.4549C3.13093 40.675 3.31984 40.8638 3.54001 41.0104C3.76018 41.1569 4.00723 41.2584 4.26687 41.3088C4.52651 41.3593 4.79358 41.3577 5.05261 41.3043C5.31164 41.2508 5.5575 41.1465 5.77595 40.9973L10.6666 37.736V50C10.6666 51.1381 10.8908 52.2651 11.3263 53.3166C11.7619 54.3681 12.4002 55.3235 13.205 56.1283C14.0098 56.933 14.9652 57.5714 16.0167 58.007C17.0682 58.4425 18.1952 58.6667 19.3333 58.6667H44.6666C45.8047 58.6667 46.9317 58.4425 47.9832 58.007C49.0347 57.5714 49.9901 56.933 50.7949 56.1283C51.5996 55.3235 52.238 54.3681 52.6736 53.3166C53.1091 52.2651 53.3333 51.1381 53.3333 50V37.736L58.2239 40.9973C58.4424 41.1465 58.6882 41.2508 58.9473 41.3043C59.2063 41.3577 59.4734 41.3593 59.733 41.3088C59.9927 41.2584 60.2397 41.1569 60.4599 41.0104C60.68 40.8638 60.869 40.675 61.0157 40.4549C61.1624 40.2349 61.264 39.9879 61.3146 39.7283C61.3652 39.4687 61.3638 39.2016 61.3106 38.9425C61.2573 38.6835 61.1531 38.4375 61.0041 38.219C60.8551 38.0005 60.6643 37.8136 60.4426 37.6693L52.4426 32.336C52.1414 32.1352 51.7914 32.02 51.4298 32.0025C51.0683 31.985 50.7087 32.066 50.3896 32.2368C50.0704 32.4076 49.8036 32.6618 49.6176 32.9723C49.4316 33.2828 49.3333 33.638 49.3333 34V50C49.3333 51.2377 48.8416 52.4247 47.9664 53.2998C47.0913 54.175 45.9043 54.6667 44.6666 54.6667H19.3333C18.0956 54.6667 16.9086 54.175 16.0334 53.2998C15.1583 52.4247 14.6666 51.2377 14.6666 50V34Z" fill="#E07A36"/>
<rect x="51.1505" y="57.7416" width="30.3012" height="3" transform="rotate(-120 51.1505 57.7416)" fill="white"/>
</svg>
