<svg width="64" height="64" viewBox="0 0 64 64" fill="none" xmlns="http://www.w3.org/2000/svg">
<path d="M14.6667 21.3333C14.6667 19.5652 15.3691 17.8695 16.6193 16.6193C17.8696 15.369 19.5653 14.6667 21.3334 14.6667C23.1015 14.6667 24.7972 15.369 26.0474 16.6193C27.2977 17.8695 28 19.5652 28 21.3333C28 23.1014 27.2977 24.7971 26.0474 26.0474C24.7972 27.2976 23.1015 28 21.3334 28C19.5653 28 17.8696 27.2976 16.6193 26.0474C15.3691 24.7971 14.6667 23.1014 14.6667 21.3333ZM21.3334 10.6667C18.5044 10.6667 15.7913 11.7905 13.7909 13.7909C11.7905 15.7912 10.6667 18.5043 10.6667 21.3333C10.6667 24.1623 11.7905 26.8754 13.7909 28.8758C15.7913 30.8762 18.5044 32 21.3334 32C24.1623 32 26.8755 30.8762 28.8758 28.8758C30.8762 26.8754 32 24.1623 32 21.3333C32 18.5043 30.8762 15.7912 28.8758 13.7909C26.8755 11.7905 24.1623 10.6667 21.3334 10.6667ZM41.3334 24C41.3334 22.9391 41.7548 21.9217 42.5049 21.1716C43.2551 20.4214 44.2725 20 45.3334 20C46.3942 20 47.4117 20.4214 48.1618 21.1716C48.9119 21.9217 49.3334 22.9391 49.3334 24C49.3334 25.0609 48.9119 26.0783 48.1618 26.8284C47.4117 27.5786 46.3942 28 45.3334 28C44.2725 28 43.2551 27.5786 42.5049 26.8284C41.7548 26.0783 41.3334 25.0609 41.3334 24ZM45.3334 16C43.2116 16 41.1768 16.8428 39.6765 18.3431C38.1762 19.8434 37.3334 21.8783 37.3334 24C37.3334 26.1217 38.1762 28.1566 39.6765 29.6568C41.1768 31.1571 43.2116 32 45.3334 32C47.4551 32 49.4899 31.1571 50.9902 29.6568C52.4905 28.1566 53.3334 26.1217 53.3334 24C53.3334 21.8783 52.4905 19.8434 50.9902 18.3431C49.4899 16.8428 47.4551 16 45.3334 16ZM37.9947 50.768C39.8694 51.528 42.272 52 45.336 52C51.4214 52 54.8987 50.1413 56.7947 47.8453C57.7147 46.7307 58.1814 45.6053 58.4214 44.744C58.5582 44.2449 58.6413 43.7327 58.6694 43.216V43.144C58.6694 42.3809 58.5191 41.6253 58.2271 40.9203C57.9351 40.2154 57.507 39.5748 56.9675 39.0352C56.4279 38.4957 55.7873 38.0676 55.0824 37.7756C54.3774 37.4836 53.6218 37.3333 52.8587 37.3333H37.8134C37.7387 37.3333 37.6667 37.3333 37.5947 37.3387C38.6454 38.432 39.408 39.8053 39.7707 41.3333H52.8587C53.8507 41.3333 54.656 42.1307 54.6694 43.1173C54.6504 43.3085 54.6147 43.4977 54.5627 43.6827C54.398 44.2757 54.1069 44.8261 53.7094 45.296C52.776 46.432 50.584 48 45.336 48C42.7227 48 40.8667 47.6107 39.5494 47.08C39.2614 48.1467 38.7867 49.4347 37.9947 50.768ZM11.3334 37.3333C9.74208 37.3333 8.21595 37.9655 7.09073 39.0907C5.96552 40.2159 5.33337 41.742 5.33337 43.3333V44.0747C5.33651 44.2601 5.34897 44.4452 5.37071 44.6293C5.59092 46.6136 6.30413 48.5112 7.44537 50.1493C9.62671 53.264 13.792 56 21.3334 56C28.8747 56 33.04 53.2667 35.2214 50.1467C36.3629 48.5087 37.0762 46.611 37.296 44.6267C37.3149 44.4431 37.3273 44.259 37.3334 44.0747V43.3333C37.3334 41.742 36.7012 40.2159 35.576 39.0907C34.4508 37.9655 32.9247 37.3333 31.3334 37.3333H11.3334ZM9.33337 44.0187V43.3333C9.33337 42.8029 9.54409 42.2942 9.91916 41.9191C10.2942 41.544 10.8029 41.3333 11.3334 41.3333H31.3334C31.8638 41.3333 32.3725 41.544 32.7476 41.9191C33.1227 42.2942 33.3334 42.8029 33.3334 43.3333V44.0187L33.3147 44.232C33.1627 45.5335 32.6919 46.7774 31.944 47.8533C30.6294 49.7333 27.792 52 21.3334 52C14.8747 52 12.0374 49.7333 10.72 47.8533C9.97309 46.7771 9.50321 45.5333 9.35204 44.232C9.34395 44.1611 9.33773 44.0899 9.33337 44.0187Z" fill="#E07A36"/>
<rect x="23.5358" y="23" width="22.5571" height="3" transform="rotate(90 23.5358 23)" fill="white"/>
</svg>
