<svg width="64" height="64" viewBox="0 0 64 64" fill="none" xmlns="http://www.w3.org/2000/svg">
<path d="M32.6107 15.0453L35.0427 19.9866L40.4934 20.7733C41.0534 20.8533 41.2747 21.5413 40.872 21.9333L36.928 25.7733L37.8614 31.2026C37.8829 31.3277 37.8691 31.4564 37.8213 31.574C37.7735 31.6916 37.6938 31.7935 37.5911 31.8681C37.4884 31.9428 37.3669 31.9872 37.2403 31.9964C37.1137 32.0055 36.9871 31.9791 36.8747 31.92L32 29.3546L27.128 31.92C27.0157 31.9791 26.889 32.0055 26.7624 31.9964C26.6358 31.9872 26.5143 31.9428 26.4116 31.8681C26.309 31.7935 26.2292 31.6916 26.1815 31.574C26.1337 31.4564 26.1198 31.3277 26.1414 31.2026L27.0747 25.776L23.128 21.936C23.0363 21.8474 22.9714 21.7348 22.9406 21.6111C22.9097 21.4874 22.9144 21.3575 22.9538 21.2362C22.9933 21.115 23.0661 21.0073 23.1639 20.9255C23.2616 20.8436 23.3804 20.7909 23.5067 20.7733L28.9574 19.9866L31.3894 15.0453C31.4453 14.9311 31.5322 14.8348 31.6402 14.7675C31.7481 14.7001 31.8728 14.6644 32 14.6644C32.1273 14.6644 32.2519 14.7001 32.3599 14.7675C32.4678 14.8348 32.5547 14.9311 32.6107 15.0453ZM50.6667 24C50.6671 20.9382 49.9144 17.9233 48.4749 15.221C47.0353 12.5187 44.9531 10.212 42.4119 8.50419C39.8706 6.79639 36.9483 5.73992 33.9024 5.42788C30.8565 5.11585 27.7807 5.55784 24.9459 6.71489C22.1112 7.87195 19.6045 9.70854 17.647 12.0628C15.6894 14.4171 14.341 17.2167 13.7206 20.215C13.1002 23.2133 13.2268 26.3182 14.0894 29.256C14.9519 32.1938 16.5239 34.8743 18.6667 37.0613V56.6666L18.688 56.9466C18.7359 57.286 18.8702 57.6073 19.078 57.8798C19.2858 58.1523 19.5602 58.3669 19.8747 58.5029C20.1893 58.6389 20.5335 58.6917 20.8744 58.6564C21.2153 58.6212 21.5414 58.4989 21.8214 58.3013L31.9974 51.136L42.1814 58.304L42.4187 58.448C42.7237 58.6042 43.0637 58.6795 43.4062 58.6666C43.7486 58.6537 44.082 58.5529 44.3744 58.3741C44.6667 58.1953 44.9082 57.9443 45.0757 57.6453C45.2431 57.3463 45.3309 57.0093 45.3307 56.6666L45.336 37.0613C48.7586 33.5761 50.6733 28.8847 50.6667 24ZM41.3334 40.1706V52.8133L33.1467 47.0533L32.88 46.8933C32.5578 46.7348 32.1988 46.6661 31.8408 46.6942C31.4827 46.7224 31.1389 46.8464 30.8454 47.0533L22.6694 52.8133V40.1706C25.5052 41.8105 28.7242 42.6716 32 42.6666C35.4 42.6666 38.5867 41.76 41.3334 40.1706ZM17.3334 24C17.3334 20.1101 18.8786 16.3796 21.6291 13.6291C24.3797 10.8785 28.1102 9.33331 32 9.33331C35.8899 9.33331 39.6204 10.8785 42.3709 13.6291C45.1215 16.3796 46.6667 20.1101 46.6667 24C46.6667 27.8898 45.1215 31.6203 42.3709 34.3709C39.6204 37.1214 35.8899 38.6666 32 38.6666C28.1102 38.6666 24.3797 37.1214 21.6291 34.3709C18.8786 31.6203 17.3334 27.8898 17.3334 24Z" fill="#70685F"/>
</svg>
